<?xml version="1.0" encoding="UTF-8" standalone="no"?>
<!-- Created with Inkscape (http://www.inkscape.org/) -->

<svg
   xmlns:dc="http://purl.org/dc/elements/1.1/"
   xmlns:cc="http://creativecommons.org/ns#"
   xmlns:rdf="http://www.w3.org/1999/02/22-rdf-syntax-ns#"
   xmlns:svg="http://www.w3.org/2000/svg"
   xmlns="http://www.w3.org/2000/svg"
   xmlns:sodipodi="http://sodipodi.sourceforge.net/DTD/sodipodi-0.dtd"
   xmlns:inkscape="http://www.inkscape.org/namespaces/inkscape"
   width="141.73228"
   height="141.73228"
   id="svg2"
   version="1.1"
   inkscape:version="0.48.5 r10040"
   sodipodi:docname="dickbutt2.gcode">
  <defs
     id="defs4" />
  <sodipodi:namedview
     id="base"
     pagecolor="#ffffff"
     bordercolor="#666666"
     borderopacity="1.0"
     inkscape:pageopacity="0.0"
     inkscape:pageshadow="2"
     inkscape:zoom="10.827564"
     inkscape:cx="91.62553"
     inkscape:cy="98.099031"
     inkscape:document-units="px"
     inkscape:current-layer="layer1"
     showgrid="false"
     units="cm"
     inkscape:window-width="1920"
     inkscape:window-height="1017"
     inkscape:window-x="-8"
     inkscape:window-y="-8"
     inkscape:window-maximized="1" />
  <metadata
     id="metadata7">
    <rdf:RDF>
      <cc:Work
         rdf:about="">
        <dc:format>image/svg+xml</dc:format>
        <dc:type
           rdf:resource="http://purl.org/dc/dcmitype/StillImage" />
        <dc:title></dc:title>
      </cc:Work>
    </rdf:RDF>
  </metadata>
  <g
     inkscape:label="Layer 1"
     inkscape:groupmode="layer"
     id="layer1"
     transform="translate(0,-910.62859)">
    <path
       style="fill:#000000"
       d="m 98.862911,983.23703 c -0.981503,-0.2943 -3.164336,-3.1757 -3.910991,-5.1627 -0.217345,-0.5784 -0.349185,-1.095 -0.509219,-1.9955 -0.204198,-1.149 -0.165136,-1.6563 0.153097,-1.9883 0.473251,-0.4937 1.539081,-0.50893 3.127581,-0.045 0.310757,0.091 0.604451,0.1632 0.652654,0.161 0.108765,0 0.310252,-0.1902 0.534383,-0.4906 0.21605,-0.28962 0.529075,-0.80233 0.50462,-0.82654 -0.01019,-0.0101 -0.435348,-0.10038 -0.9448,-0.20065 -2.846576,-0.56029 -5.624814,-1.47608 -7.133562,-2.35146 l -0.276222,-0.16026 -0.509662,0.54892 c -1.127895,1.21477 -2.61178,2.77707 -3.30105,3.47549 -0.413769,0.4193 -0.517782,0.55 -0.492937,0.6193 0.02394,0.067 0.01814,0.076 -0.02416,0.037 -0.07673,-0.07 -1.131041,0.9871 -1.064198,1.0668 0.02993,0.036 0.02577,0.065 -0.01238,0.089 -0.03289,0.02 -0.06583,0.01 -0.07708,-0.023 -0.01124,-0.033 -0.329639,0.2433 -0.744062,0.6465 -0.915429,0.8907 -1.239952,1.1844 -1.593017,1.4417 -0.251923,0.1837 -0.305906,0.2045 -0.505948,0.1955 -0.123165,-0.01 -0.223936,-0.024 -0.223936,-0.042 0,-0.017 -0.07819,-0.083 -0.173748,-0.1467 -0.448241,-0.2969 -1.24782,-1.2115 -1.815085,-2.0761 -0.706212,-1.0765 -1.097326,-1.9857 -1.433408,-3.3322 -0.344871,-1.38173 -0.438187,-1.93639 -0.438868,-2.60858 -4.89e-4,-0.48169 0.01953,-0.64674 0.125142,-1.03172 0.06915,-0.25206 0.145735,-0.47811 0.170193,-0.50233 0.06436,-0.0637 0.05464,-0.12864 -0.01345,-0.0898 -0.03365,0.0192 -0.04174,0.0155 -0.01931,-0.009 0.02124,-0.023 0.04511,-0.0314 0.05305,-0.0188 0.0079,0.0126 0.05312,-0.0103 0.100388,-0.0509 0.216399,-0.18584 0.597777,-0.13345 1.198875,0.1647 0.229863,0.11401 0.443574,0.20729 0.474913,0.20729 0.03134,0 0.05735,0.0258 0.05781,0.0573 4.63e-4,0.0315 0.102257,0.12299 0.226222,0.20322 0.318073,0.20586 0.987531,0.76903 1.446372,1.21673 0.460246,0.44907 0.967551,0.99992 0.967551,1.05061 0,0.0742 0.19668,0.36219 0.247374,0.36219 0.243837,0 2.287424,-2.77887 2.222991,-3.02282 -0.01969,-0.0745 -0.0043,-0.0966 0.06734,-0.0966 0.06888,0 0.177236,-0.13781 0.419593,-0.53366 l 0.326731,-0.53366 -0.425773,-0.32082 c -0.615611,-0.46386 -0.871089,-0.6819 -1.463289,-1.24888 -0.654378,-0.62652 -1.132907,-1.18801 -1.542129,-1.80949 -0.60052,-0.912 -0.908896,-1.66413 -1.153265,-2.81281 -0.07653,-0.35972 -0.224319,-0.974 -0.328431,-1.36508 -0.104112,-0.39108 -0.260434,-0.97795 -0.347384,-1.30416 -0.289032,-1.08435 -0.430915,-2.2312 -0.531051,-4.29253 -0.06126,-1.26106 -0.06315,-7.32467 -0.0031,-9.86301 l 0.03746,-1.58267 1.288991,-2.77541 c 1.751295,-3.77082 2.312897,-4.98529 2.561543,-5.53934 0.11606,-0.25862 0.227861,-0.47022 0.248445,-0.47022 0.07723,0 0.965288,-1.42158 1.392337,-2.22882 0.310347,-0.58664 0.372261,-0.74603 0.264072,-0.67983 -0.03341,0.0205 -0.0409,0.0126 -0.01996,-0.021 0.01844,-0.0296 0.05134,-0.0428 0.07312,-0.0295 0.04757,0.0291 0.232241,-0.43727 0.265274,-0.66995 0.01293,-0.091 -0.02029,-0.42135 -0.07381,-0.734 -0.248831,-1.45361 -0.215577,-2.77264 0.09355,-3.71085 0.418042,-1.26875 1.292364,-2.11027 2.588745,-2.49162 0.620504,-0.18253 0.981044,-0.22721 1.898861,-0.23534 l 0.85716,-0.008 3.335972,-1.64897 c 1.834785,-0.90693 3.346397,-1.65929 3.359139,-1.67191 0.01274,-0.0126 0.04402,-0.0266 0.0695,-0.031 0.02548,-0.004 0.289365,-0.10235 0.586408,-0.21759 0.576327,-0.22359 1.326657,-0.42999 2.035657,-0.55996 0.68444,-0.12546 2.25826,-0.11673 2.96199,0.0164 1.08606,0.20552 2.42743,0.74166 3.4277,1.37004 0.32605,0.20483 1.75637,1.23803 1.80699,1.30529 0.0127,0.0169 0.25251,0.21982 0.53282,0.45087 0.28032,0.23104 0.58683,0.49553 0.68114,0.58774 0.48378,0.47304 0.82748,1.67638 0.96671,3.38469 0.0728,0.89261 0.0316,3.8053 -0.0691,4.88688 -0.33552,3.60458 -1.03709,7.12086 -1.95872,9.81714 -0.37226,1.08905 -0.66779,1.7848 -1.24713,2.93596 -0.68423,1.35961 -0.83178,1.6773 -1.1506,2.47723 -0.47559,1.19327 -0.93455,2.68923 -1.22879,4.00517 -0.15459,0.69136 -0.41829,2.17044 -0.41829,2.34612 l 0,0.1099 0.35908,-0.11297 c 1.68184,-0.52917 3.56703,-0.84276 5.06855,-0.84313 2.40727,-6e-4 4.33571,0.67428 5.66205,1.9815 0.25094,0.24733 0.46129,0.44969 0.46744,0.44969 0.045,0 1.90142,-2.12907 1.89719,-2.17585 -0.003,-0.0329 0.0197,-0.0574 0.0503,-0.0544 0.048,0.005 0.90491,-0.89393 0.90491,-0.94887 0,-0.011 0.0886,-0.11046 0.19691,-0.22101 0.1083,-0.11055 0.72113,-0.78935 1.36183,-1.50843 1.83118,-2.05518 2.69209,-2.87216 3.61008,-3.42583 0.95346,-0.57506 1.96181,-0.65333 3.03211,-0.23535 0.39562,0.1545 0.93668,0.41916 1.12032,0.54801 0.0787,0.0552 0.13501,0.0697 0.15378,0.0397 0.0405,-0.0649 0.12777,-0.005 0.0994,0.0681 -0.0126,0.0324 0.039,0.11755 0.11458,0.18924 0.83351,0.79065 0.82781,2.2195 -0.0155,3.89421 -0.13806,0.27418 -1.24571,1.96677 -2.75303,4.20693 -2.02458,3.00888 -2.53771,3.7428 -2.60149,3.72092 -0.0666,-0.0228 -0.0645,-0.0117 0.0132,0.0688 0.14206,0.14725 0.78359,0.51199 1.83339,1.04239 1.03484,0.52284 1.39576,0.78449 1.56796,1.13669 0.19181,0.39231 0.10687,0.79094 -0.26818,1.2585 -0.10625,0.13246 -0.17185,0.24084 -0.14578,0.24084 0.0261,0 0.0474,0.031 0.0474,0.0688 0,0.0378 -0.0313,0.0688 -0.0695,0.0688 -0.0382,0 -0.0695,-0.0232 -0.0695,-0.0515 0,-0.034 -0.0295,-0.0301 -0.0866,0.0115 -0.47231,0.34341 -0.91479,0.61154 -1.42515,0.86361 l -0.60823,0.30041 0.18515,0.11464 c 0.27541,0.17053 0.7132,0.6653 0.86922,0.98235 0.22642,0.46013 0.29212,0.80201 0.26507,1.37927 -0.0275,0.58618 -0.10998,0.92638 -0.33577,1.38435 -0.24865,0.50434 -0.73495,0.90329 -1.30779,1.0729 -0.1083,0.0321 -0.19691,0.0779 -0.19691,0.10182 0,0.0239 -0.0288,0.0326 -0.0639,0.0192 -0.0351,-0.0133 -0.14459,-0.005 -0.24325,0.0189 -0.38295,0.0922 -1.24586,0.12957 -1.93904,0.0839 -0.77738,-0.0512 -1.3194,-0.12884 -2.12168,-0.30388 -0.29996,-0.0654 -0.55232,-0.11082 -0.5608,-0.10083 -0.0621,0.0731 -0.35331,0.555 -0.35331,0.58465 0,0.0901 -2.35049,2.07971 -3.49878,2.96154 -0.33163,0.25467 -0.66523,0.51102 -0.74133,0.56967 -0.0761,0.0586 -0.10907,0.0916 -0.0733,0.0732 0.0434,-0.0223 0.0538,-0.0154 0.0313,0.0208 -0.0186,0.0298 -0.0583,0.0489 -0.0882,0.0424 -0.0867,-0.0187 -1.00425,0.60257 -1.00425,0.68002 0,0.0426 -0.0317,0.0633 -0.0811,0.053 -0.0446,-0.009 -0.23746,0.0593 -0.42858,0.15262 -0.19113,0.0933 -0.4726,0.20485 -0.6255,0.24781 -0.1529,0.043 -0.58032,0.21893 -0.94982,0.39093 -0.8372,0.3898 -1.08042,0.4555 -1.81104,0.4892 -0.8503,0.039 -1.70442,-0.06 -3.05392,-0.3555 -0.58075,-0.1271 -2.0638,-0.50734 -2.24064,-0.57453 -0.10006,-0.038 -0.49319,0.76483 -1.2773,2.60853 -0.99852,2.3478 -1.69469,3.8411 -2.12827,4.5653 -0.08,0.1335 -0.14541,0.2608 -0.14541,0.2828 0,0.022 -0.0409,0.088 -0.0909,0.147 -0.37473,0.4418 -0.66914,0.8541 -0.65796,0.9214 0.009,0.052 -0.0166,0.08 -0.0727,0.08 -0.0481,0 -0.16067,0.096 -0.25504,0.2179 -0.28418,0.3665 -0.786197,0.8191 -0.997737,0.8996 -0.206817,0.079 -0.551039,0.093 -0.756615,0.031 z m 0.733165,-0.1646 c 0.37657,-0.1858 1.310614,-1.2302 1.919684,-2.1465 0.47168,-0.7096 1.2184,-2.2462 2.09912,-4.3196 0.75719,-1.7825 1.38913,-3.17798 1.47992,-3.26786 0.01,-0.01 0.19231,0.0339 0.40518,0.0974 1.01467,0.30246 2.68508,0.68196 3.58399,0.81426 0.22935,0.034 0.7506,0.061 1.15833,0.06 0.90419,0 1.08298,-0.044 2.01548,-0.4793 0.36951,-0.1726 0.76565,-0.33797 0.88033,-0.36754 0.99246,-0.25591 2.93815,-1.62126 5.55482,-3.89799 0.39216,-0.34122 0.7831,-0.67867 0.86874,-0.74989 0.0856,-0.0712 0.15572,-0.14745 0.15572,-0.16939 0,-0.0635 0.37704,-0.64155 0.41846,-0.64155 0.0206,0 0.25283,0.0512 0.51607,0.11378 1.60212,0.38085 3.23436,0.46143 4.23159,0.20892 0.75593,-0.19141 1.31027,-0.57411 1.59336,-1.09998 0.198,-0.36782 0.37579,-1.07262 0.37579,-1.48975 0,-0.83194 -0.43011,-1.63524 -1.13173,-2.11368 -0.14204,-0.0969 -0.25755,-0.2088 -0.25667,-0.24877 0.001,-0.0457 0.13428,-0.13147 0.35908,-0.23112 1.56885,-0.69544 2.52227,-1.57746 2.40041,-2.22063 -0.0422,-0.22297 -0.34208,-0.58459 -0.66436,-0.80129 -0.14712,-0.0989 -0.62404,-0.35659 -1.05981,-0.5726 -0.86835,-0.43045 -1.5043,-0.7895 -1.72712,-0.97514 -0.17237,-0.14361 -0.19252,-0.29457 -0.0395,-0.29632 0.0862,-9.8e-4 0.52892,-0.63167 2.55989,-3.64697 1.35061,-2.00518 2.56501,-3.84708 2.69868,-4.09311 0.95615,-1.75987 0.95422,-3.14747 -0.006,-3.98278 -0.2629,-0.22881 -1.17944,-0.69745 -1.65125,-0.84431 -0.90171,-0.28067 -1.72611,-0.17325 -2.56818,0.33463 -0.59386,0.35818 -1.04061,0.73 -1.83853,1.53016 -0.76403,0.76617 -1.06165,1.08814 -2.47313,2.67554 -2.19152,2.46463 -3.78826,4.22042 -3.83786,4.22014 -0.0298,-1.9e-4 -0.10441,-0.0734 -0.16588,-0.16281 -0.1796,-0.26108 -0.79029,-0.80354 -1.23293,-1.09517 -2.32535,-1.53201 -5.68329,-1.6643 -9.78556,-0.38551 -0.26053,0.0812 -0.48399,0.13746 -0.49658,0.125 -0.0126,-0.0125 -0.004,-0.0939 0.0199,-0.18089 0.0235,-0.087 0.0971,-0.49885 0.16344,-0.91516 0.30277,-1.89924 0.84273,-3.87408 1.53026,-5.59668 0.35099,-0.87943 0.42527,-1.0401 1.04979,-2.27079 0.30729,-0.60554 0.67342,-1.37968 0.81362,-1.72029 1.12419,-2.73128 1.99464,-6.5031 2.41908,-10.48232 0.1767,-1.65661 0.24333,-4.33173 0.13825,-5.55082 -0.12976,-1.50541 -0.45593,-2.71023 -0.86357,-3.18988 -0.2552,-0.30029 -2.52484,-2.11024 -2.74761,-2.19112 -0.0386,-0.014 -0.0806,-0.0399 -0.0934,-0.0574 -0.0547,-0.0754 -0.65797,-0.43139 -1.16328,-0.68646 -2.18522,-1.10307 -4.20257,-1.28649 -6.58666,-0.59886 -0.823864,0.23762 -1.50136,0.54592 -4.930042,2.24342 l -3.333351,1.65031 -0.408133,-0.0444 c -0.525772,-0.0572 -1.385755,0.0134 -1.979566,0.16256 -2.53265,0.6361 -3.532403,2.84701 -2.86244,6.33016 0.115011,0.59794 0.05242,0.88543 -0.379189,1.74184 -0.424551,0.84239 -1.448861,2.51848 -1.564772,2.56045 -0.02381,0.009 -0.136732,0.22211 -0.250946,0.47442 -0.114213,0.25231 -0.451981,0.98516 -0.750595,1.62855 -0.298614,0.64339 -0.652255,1.4072 -0.785869,1.69735 -0.133615,0.29016 -0.708126,1.52877 -1.276693,2.75247 l -1.033757,2.22492 -0.0374,1.6056 c -0.05652,2.42663 -0.05381,8.43011 0.0044,9.67952 0.09975,2.14219 0.263188,3.34768 0.633631,4.67363 0.282698,1.01187 0.406254,1.50356 0.568334,2.26164 0.287746,1.34584 0.6836,2.21474 1.509661,3.31372 0.619736,0.82449 1.784925,1.9352 2.817918,2.68617 0.170656,0.12407 0.310283,0.24661 0.310283,0.27233 0,0.0657 -0.892992,1.47216 -1.473678,2.32102 -0.602989,0.88147 -0.945951,1.32995 -1.293901,1.69199 -0.21804,0.22686 -0.29746,0.28062 -0.414643,0.28062 -0.122776,0 -0.163616,-0.0316 -0.267017,-0.20624 -0.392967,-0.66392 -1.693459,-1.89543 -2.739879,-2.59456 -0.477773,-0.31921 -0.914501,-0.51496 -1.201465,-0.53852 -0.218849,-0.018 -0.246963,-0.009 -0.355763,0.1195 -0.2206,0.25957 -0.435632,1.28522 -0.381706,1.82064 0.07858,0.78019 0.459276,2.48787 0.73941,3.31679 0.180061,0.5328 0.633015,1.5016 0.852765,1.824 0.07806,0.1145 0.14193,0.2198 0.14193,0.234 0,0.054 0.628323,0.9245 0.904871,1.2541 0.37314,0.4447 1.01722,1.0534 1.234999,1.1671 0.136431,0.071 0.192019,0.079 0.27791,0.039 0.550296,-0.2587 3.529928,-3.2068 7.084068,-7.00915 0.44793,-0.4792 0.853923,-0.91773 0.902206,-0.9745 0.04828,-0.0568 0.120588,-0.10322 0.160678,-0.10322 0.04009,0 0.279994,0.1133 0.533118,0.25177 1.655194,0.90548 4.52096,1.82279 7.307914,2.33922 0.539358,0.0999 0.683411,0.14197 0.683411,0.1994 0,0.04 -0.118337,0.26912 -0.262973,0.50909 -0.30596,0.50759 -0.729857,0.96689 -0.892488,0.96689 -0.05963,0 -0.308808,-0.061 -0.553722,-0.1359 -1.680307,-0.5129 -2.684691,-0.5184 -3.164902,-0.017 -0.312135,0.3256 -0.338955,0.7238 -0.128557,1.9089 0.215596,1.2144 0.433986,1.9059 0.879861,2.7859 0.791129,1.5615 2.318384,3.552 3.10546,4.0475 0.468587,0.295 0.689436,0.3261 1.050848,0.1478 z m -0.566357,-1.9333 c -0.252155,-0.1342 -0.439212,-0.2981 -0.664727,-0.5823 -0.673968,-0.8494 -1.325601,-2.2707 -1.905744,-4.1569 -0.104767,-0.3406 -0.210402,-0.6552 -0.234744,-0.699 -0.05884,-0.1059 -0.05644,-0.2644 0.004,-0.2644 0.02655,0 0.08964,0.038 0.140203,0.085 0.103895,0.096 0.874155,0.5346 1.509348,0.8598 0.650014,0.3327 1.023173,0.331 1.469933,-0.01 0.360871,-0.2728 0.596901,-0.6203 1.432562,-2.109 0.14202,-0.253 0.41815,-0.6762 0.6136,-0.94038 0.43191,-0.58387 0.57776,-0.85831 0.57753,-1.08672 -6.3e-4,-0.63472 -0.85347,-1.00193 -3.816631,-1.64335 -3.184013,-0.68923 -4.428109,-1.07947 -6.21428,-1.94928 -1.779336,-0.86648 -3.835877,-2.20732 -4.865324,-3.17213 -1.726833,-1.61842 -3.030861,-4.03822 -3.777993,-7.01058 -0.612985,-2.43867 -0.872847,-5.05971 -0.816405,-8.23447 0.0413,-2.32327 0.185887,-4.04114 0.522878,-6.21259 l 0.116941,-0.75353 1.833257,-4.17798 c 1.008291,-2.29789 1.840728,-4.18649 1.849861,-4.1969 0.0091,-0.0104 0.07403,0.008 0.144216,0.0404 0.07019,0.0326 0.27356,0.088 0.451942,0.12306 0.581426,0.11424 8.407956,1.56598 9.33609,1.73175 0.49692,0.0888 1.205815,0.21521 1.57532,0.28103 1.230896,0.21924 2.566438,0.43112 3.011638,0.47778 2.11028,0.22119 2.64852,0.23367 2.98848,0.0693 0.10193,-0.0493 0.18333,-0.11024 0.18088,-0.13547 -0.0247,-0.25502 -3.02658,-1.14633 -7.733152,-2.29611 -3.760479,-0.91866 -7.719916,-1.7615 -8.652678,-1.84188 -0.215454,-0.0186 -0.312748,-0.0459 -0.312748,-0.0879 0,-0.0335 0.189088,-0.62402 0.420195,-1.31224 0.231107,-0.68822 0.423193,-1.28744 0.426856,-1.33159 0.009,-0.10882 0.0617,-0.10392 0.827258,0.077 1.010557,0.23876 1.850583,0.33034 2.206076,0.24051 0.132882,-0.0336 0.150582,-0.0272 0.150582,0.0546 0,0.051 -0.01918,0.10442 -0.04262,0.11876 -0.07405,0.0453 -0.284773,0.45051 -0.380577,0.73181 -0.287113,0.84302 0.384792,1.31456 2.063158,1.44791 2.371344,0.18841 4.058988,-0.13569 4.058988,-0.7795 0,-0.28566 -0.69835,-1.02829 -1.191726,-1.26729 -0.237291,-0.11494 -0.265952,-0.11922 -0.378091,-0.0565 -0.13348,0.0747 -0.147774,0.18527 -0.08932,0.69096 l 0.03011,0.26051 -0.30906,0.0377 c -0.169982,0.0207 -0.559257,0.0372 -0.865055,0.0367 -0.438957,-7.4e-4 -0.587404,-0.0177 -0.705204,-0.0808 -0.179725,-0.0961 -0.261979,-0.23353 -0.225646,-0.37686 0.0878,-0.34636 1.470733,-1.16139 3.386497,-1.99581 0.609371,-0.26542 0.799515,-0.42085 0.930606,-0.76071 0.128888,-0.33415 0.0096,-0.63613 -0.351816,-0.89096 l -0.132066,-0.0931 -0.627459,0.27485 c -0.345102,0.15117 -0.668803,0.30042 -0.719334,0.33167 -0.14133,0.0874 -0.158197,0.0232 -0.07756,-0.29513 0.04078,-0.16098 0.07414,-0.43264 0.07414,-0.60368 0,-0.37474 -0.142448,-1.0953 -0.306775,-1.55179 -0.165346,-0.45931 -0.602879,-1.3598 -0.919609,-1.89265 -0.145145,-0.24418 -0.256971,-0.44946 -0.248502,-0.45619 0.0085,-0.007 0.321139,-0.15759 0.694822,-0.33527 0.373684,-0.17767 0.771112,-0.3855 0.883175,-0.46184 0.229841,-0.15657 3.948315,-1.75111 4.483845,-1.92274 1.98603,-0.6365 4.10966,-0.43049 5.56564,0.53992 0.37442,0.24956 1.04693,0.89466 1.33689,1.2824 0.24008,0.32104 0.8786,1.33595 1.16891,1.85792 1.0525,1.8924 1.31352,2.78509 1.3078,4.47276 -0.005,1.57471 -0.29014,3.07604 -1.23067,6.48744 -1.05086,3.81154 -1.76114,6.04614 -3.99652,12.57341 -0.34564,1.00924 -0.70192,2.11972 -0.79175,2.46773 l -0.16332,0.63275 0,1.75793 c 0,1.79946 0.0275,2.16312 0.17869,2.36682 0.10986,0.14797 0.40556,0.22391 1.01438,0.26052 l 0.47491,0.0285 0.006,-0.11013 c 0.003,-0.0606 0.019,-0.34736 0.0348,-0.63731 l 0.0286,-0.52719 0.41123,-0.17415 c 0.71465,-0.30265 1.75493,-0.5555 2.8692,-0.69739 0.64626,-0.0823 2.22367,-0.0929 2.83552,-0.019 0.82631,0.0997 1.89798,0.42877 2.82631,0.86778 0.59027,0.27914 1.73749,1.03198 1.73749,1.1402 0,0.0728 -0.931,1.02721 -1.20994,1.24042 l -0.12112,0.0926 -0.54397,-0.13602 c -0.77803,-0.19455 -1.4796,-0.27369 -2.42611,-0.27369 -1.5967,0 -3.26052,0.31386 -4.76902,0.89963 l -0.56088,0.2178 0.0688,0.13184 c 0.10648,0.20387 0.39171,0.46337 0.64505,0.58686 l 0.22971,0.11197 2.20082,0.003 c 2.3189,0.004 2.50912,0.0164 3.6156,0.24492 0.92888,0.19185 1.90037,0.58209 2.60753,1.04743 0.37327,0.24562 1.46814,1.30071 1.46814,1.4148 0,0.01 0.0912,0.15775 0.20263,0.32885 0.80856,1.24132 1.21086,2.88675 1.08773,4.44884 -0.0556,0.7054 -0.13748,0.98144 -0.47216,1.59191 -0.0678,0.12361 -0.12321,0.26281 -0.12321,0.30934 0,0.13583 -2.4654,2.13539 -3.78755,3.07188 -1.77912,1.26016 -2.74343,1.64363 -4.13833,1.64569 -0.70341,10e-4 -0.88537,-0.0185 -2.9392,-0.31566 -1.505,-0.21774 -2.41828,-0.29935 -3.0239,-0.27023 -0.56717,0.0273 -0.75223,0.10756 -0.75223,0.32632 0,0.2222 -0.93224,2.95191 -1.45983,4.27461 -0.98959,2.4808 -1.78699,3.9136 -2.447429,4.3974 -0.18678,0.1368 -0.266908,0.1667 -0.442319,0.1652 -0.11782,-10e-4 -0.276768,-0.035 -0.353218,-0.076 z m 0.653297,-0.1445 c 0.475754,-0.3433 0.873914,-0.9187 1.481104,-2.1404 0.44625,-0.8979 0.87467,-1.9018 1.34101,-3.1424 0.44489,-1.1835 1.13472,-3.26626 1.13472,-3.42593 0,-0.23284 0.18001,-0.30219 0.84883,-0.32702 0.71512,-0.0265 1.57622,0.0485 3.11264,0.27141 1.89933,0.27551 2.26662,0.31617 2.85627,0.31617 0.76789,0 1.49257,-0.17039 2.19402,-0.51586 0.36004,-0.17733 1.26718,-0.71626 1.36409,-0.8104 0.0413,-0.0401 0.13446,-0.10364 0.20708,-0.1412 0.30459,-0.15754 2.00828,-1.47173 3.36918,-2.59892 0.56932,-0.47155 0.68243,-0.58617 0.70715,-0.7166 0.0162,-0.0854 0.0918,-0.2526 0.16796,-0.37156 0.32245,-0.50343 0.43738,-1.11901 0.40371,-2.16244 -0.0592,-1.83578 -0.72759,-3.42032 -1.9549,-4.63463 -1.05023,-1.03911 -2.30689,-1.58497 -4.35673,-1.89245 -0.41966,-0.0629 -0.89516,-0.0767 -2.68752,-0.0779 -2.35992,-0.002 -2.23611,0.0107 -2.65124,-0.264 -0.23001,-0.15223 -0.47623,-0.48608 -0.47623,-0.64572 0,-0.10203 0.0567,-0.13376 0.61391,-0.34336 2.45204,-0.92242 5.2193,-1.14937 7.36776,-0.60426 0.3345,0.0849 0.36799,0.0861 0.47451,0.017 0.063,-0.0409 0.10329,-0.0925 0.0894,-0.11469 -0.0138,-0.0222 0.0124,-0.027 0.0583,-0.0106 0.0459,0.0163 0.0711,0.0159 0.056,-10e-4 -0.0151,-0.0169 0.18774,-0.24048 0.45085,-0.49683 0.38721,-0.37726 0.46807,-0.47838 0.42431,-0.53058 -0.10593,-0.12638 -1.08702,-0.74342 -1.54263,-0.97021 -0.8592,-0.42768 -2.06922,-0.81347 -2.84947,-0.90849 -0.57494,-0.07 -2.48019,-0.0409 -3.03481,0.0464 -1.07708,0.16951 -2.04088,0.42732 -2.6989,0.72193 l -0.28958,0.12965 -5.1e-4,0.45016 c -2.7e-4,0.24758 -0.0139,0.53043 -0.0303,0.62855 l -0.0298,0.1784 -0.56047,-0.0269 c -0.96202,-0.0462 -1.13972,-0.13606 -1.23186,-0.62286 -0.0265,-0.14009 -0.0469,-1.04401 -0.047,-2.08729 l -2.8e-4,-1.84018 0.14835,-0.59637 c 0.0816,-0.328 0.43749,-1.44275 0.79089,-2.47722 1.96059,-5.73896 2.59571,-7.68883 3.34712,-10.27589 1.04495,-3.59772 1.53166,-5.5564 1.78991,-7.2032 0.13426,-0.85617 0.14603,-2.22366 0.0247,-2.86625 -0.22644,-1.19885 -0.98169,-2.79813 -2.15557,-4.56451 -0.30627,-0.46086 -1.21708,-1.45043 -1.24865,-1.35664 -0.0285,0.0846 -0.15605,0.0558 -0.13746,-0.0311 0.021,-0.098 -0.2714,-0.31957 -0.71749,-0.5438 -1.34973,-0.67844 -2.97672,-0.77793 -4.69069,-0.28683 -0.45237,0.12962 -4.398374,1.80599 -4.6424,1.97222 -0.162234,0.11052 -1.305971,0.6876 -1.470973,0.7422 -0.02406,0.008 0.05149,0.17828 0.167901,0.3785 0.58012,0.99774 0.946062,1.86903 1.100848,2.62107 0.09922,0.48206 0.123893,1.14486 0.05374,1.44377 -0.03883,0.16545 -0.03756,0.16759 0.07061,0.11879 0.06058,-0.0273 0.110149,-0.067 0.110149,-0.0882 0,-0.0212 0.04076,-0.0385 0.09059,-0.0385 0.04982,0 0.280107,-0.0826 0.511741,-0.1835 0.231634,-0.10092 0.46859,-0.1835 0.526568,-0.1835 0.139863,0 0.488567,0.29999 0.568285,0.48889 0.09771,0.23154 0.07832,0.51871 -0.05259,0.7788 -0.15852,0.31496 -0.240459,0.37616 -0.880101,0.65731 -1.435248,0.63085 -2.721003,1.32302 -3.124049,1.68181 -0.28077,0.24994 -0.29144,0.35644 -0.04976,0.49664 0.135631,0.0787 0.24177,0.0941 0.648662,0.0941 0.267572,0 0.60752,-0.0171 0.755438,-0.038 l 0.268942,-0.038 -0.03155,-0.42553 c -0.03051,-0.41148 -0.02795,-0.42803 0.07728,-0.50101 0.257852,-0.17882 0.679254,-0.0158 1.205834,0.46641 0.439352,0.40235 0.596696,0.648 0.596696,0.93156 0,0.2799 -0.134941,0.44397 -0.496143,0.60324 -0.460353,0.20298 -0.880988,0.26621 -1.959504,0.29451 -1.053764,0.0277 -2.154065,-0.0318 -2.702823,-0.14601 -0.393435,-0.0819 -0.747822,-0.23983 -0.968379,-0.43157 -0.336937,-0.2929 -0.344066,-0.85311 -0.01874,-1.47249 l 0.156621,-0.29819 -0.445738,-0.0103 c -0.547312,-0.0127 -1.206606,-0.1116 -1.890081,-0.28352 l -0.517685,-0.13021 -0.435231,1.30156 -0.435232,1.30155 0.170437,0 c 0.20245,0 1.701136,0.26007 2.615721,0.45391 5.432519,1.15137 10.868306,2.52228 13.074626,3.29743 0.80222,0.28184 0.99408,0.42204 0.82729,0.60451 -0.21619,0.23652 -0.93119,0.28963 -2.19103,0.16275 -0.376,-0.0379 -0.90257,-0.091 -1.17014,-0.11796 -0.9078,-0.0916 -3.578029,-0.55993 -9.799419,-1.7186 -3.793102,-0.70642 -4.395378,-0.82037 -4.507379,-0.85279 -0.03908,-0.0113 -0.265962,0.45377 -0.662964,1.35903 -0.331951,0.75693 -0.72573,1.65492 -0.875065,1.99554 -0.149335,0.34062 -0.56724,1.29022 -0.928678,2.11023 -1.347086,3.05618 -1.231415,2.75135 -1.364198,3.59504 -0.532719,3.38484 -0.672598,7.30487 -0.36853,10.32786 0.246656,2.45222 0.730677,4.57198 1.457141,6.38154 0.435442,1.08464 1.304088,2.66539 1.491314,2.71387 0.0502,0.013 0.08074,0.0554 0.0729,0.10133 -0.02868,0.16781 0.904649,1.2755 1.579568,1.87465 1.070358,0.9502 3.027247,2.21436 4.661884,3.01162 1.826318,0.89074 2.991202,1.25737 6.264511,1.97167 2.745915,0.59921 3.581375,0.92279 3.791905,1.46861 0.13401,0.34743 0.0178,0.67338 -0.47532,1.33334 -0.29902,0.40014 -0.70685,1.05494 -1.0558,1.69514 -0.35742,0.6557 -0.619521,1.0357 -0.906071,1.3134 -0.344034,0.3335 -0.574678,0.4228 -1.032367,0.3999 -0.383579,-0.019 -0.666947,-0.1403 -1.671072,-0.7146 -0.277843,-0.1589 -0.513478,-0.2807 -0.523633,-0.2706 -0.01016,0.01 0.14698,0.5109 0.349191,1.1131 0.374892,1.1163 0.769213,2.0811 0.850604,2.0811 0.02487,0 0.03536,0.026 0.0233,0.057 -0.02604,0.068 0.309806,0.7044 0.609525,1.1549 0.375906,0.5649 0.870732,0.9826 1.16996,0.9877 0.06625,10e-4 0.201778,-0.057 0.301168,-0.1284 z m 9.958454,-9.32332 c -0.24016,-0.21918 -0.58066,-0.844 -0.58066,-1.06552 0,-0.16508 0.16028,-0.41606 0.31954,-0.50035 0.1708,-0.0904 0.54071,-0.0688 0.68937,0.0402 0.30767,0.22565 0.44576,0.58808 0.41959,1.10122 -0.0225,0.44125 -0.12209,0.58282 -0.42378,0.60246 -0.19521,0.0127 -0.23203,-0.003 -0.42406,-0.17801 z m 0.64258,-0.0573 c 0.13875,-0.18503 0.1365,-0.75465 -0.004,-1.01718 -0.17297,-0.32315 -0.43037,-0.48836 -0.69529,-0.44626 -0.11641,0.0185 -0.37017,0.2591 -0.41248,0.39108 -0.0463,0.14454 0.31524,0.81287 0.5612,1.03734 0.24858,0.22688 0.39951,0.23647 0.55058,0.035 z m -2.26573,-2.79282 c -0.40021,-0.13851 -0.53211,-0.3657 -0.53257,-0.91732 -3.3e-4,-0.36858 0.0594,-0.51651 0.23795,-0.58975 0.43227,-0.17728 1.44677,0.29992 1.64764,0.77502 0.12336,0.29177 -0.10128,0.63379 -0.48572,0.7395 -0.21715,0.0597 -0.68484,0.0557 -0.8673,-0.007 z m 0.78548,-0.0873 c 0.23289,-0.064 0.48867,-0.31166 0.48867,-0.47313 0,-0.29002 -0.77058,-0.83058 -1.26221,-0.88545 -0.18506,-0.0207 -0.215,-0.009 -0.32788,0.12344 -0.097,0.11411 -0.12423,0.19447 -0.12423,0.36629 0,0.35195 0.0498,0.50777 0.21087,0.65949 0.25677,0.24189 0.62218,0.31728 1.01478,0.20936 z m -1.40069,-2.16321 c -0.0542,-0.0571 -0.13311,-0.18577 -0.17536,-0.28591 -0.0873,-0.20689 -0.14082,-0.80194 -0.0942,-1.04784 0.0433,-0.22848 0.41834,-0.62153 0.77028,-0.80725 0.38094,-0.20103 0.65853,-0.21286 0.89033,-0.0379 0.20834,0.15724 0.28794,0.37726 0.28699,0.7933 -10e-4,0.43804 -0.13584,0.70416 -0.50681,1.00022 -0.60323,0.48142 -0.96663,0.601 -1.1712,0.3854 z m 0.56887,-0.12291 c 0.34147,-0.19771 0.75615,-0.53731 0.85738,-0.70213 0.33437,-0.54439 0.0994,-1.36484 -0.39095,-1.36484 -0.34662,0 -0.95434,0.42293 -1.14813,0.79902 -0.17202,0.33385 -0.037,1.10412 0.23,1.31206 0.15121,0.11777 0.17639,0.11531 0.4517,-0.0441 z m 3.47497,-3.49588 c -0.5603,-0.036 -0.85051,-0.0976 -1.16233,-0.24682 -0.45781,-0.2191 -0.4518,-0.51426 0.0224,-1.09806 0.14913,-0.1836 0.17469,-0.2414 0.13188,-0.29818 -0.0439,-0.0582 -0.042,-0.0606 0.0108,-0.0141 0.052,0.0458 0.10944,0.0137 0.30791,-0.17218 0.26923,-0.25211 0.40666,-0.31993 0.64828,-0.31993 0.20702,0 0.36337,0.16123 0.46279,0.47725 0.0838,0.26634 0.1477,1.53548 0.0825,1.63776 -0.0327,0.0512 -0.13363,0.0581 -0.50416,0.0343 z m 0.43147,-0.47488 c 0.0292,-0.74064 -0.13794,-1.40581 -0.38634,-1.53744 -0.0997,-0.0528 -0.13929,-0.0506 -0.27995,0.0158 -0.22417,0.10584 -0.57941,0.44328 -0.84884,0.80631 -0.31756,0.42787 -0.34074,0.48009 -0.2758,0.62122 0.11316,0.2459 0.88495,0.48764 1.49846,0.46936 l 0.278,-0.008 0.0145,-0.36699 z m -16.28338,0.25701 c -0.350993,-0.20365 -0.63437,-0.55444 -0.93381,-1.15595 l -0.264805,-0.53195 -0.277998,-0.0276 c -0.152899,-0.0152 -0.413522,-0.0697 -0.579162,-0.12129 -0.713091,-0.22188 -1.065658,-0.56934 -1.065658,-1.05022 0,-0.40802 0.08188,-0.59713 0.390695,-0.90236 0.153167,-0.15138 0.273352,-0.29226 0.267078,-0.31306 -0.0063,-0.0208 0.0066,-0.0268 0.0286,-0.0133 0.05936,0.0363 0.755701,-0.52553 1.270421,-1.02505 0.248038,-0.24072 0.487811,-0.46002 0.532829,-0.48735 0.157072,-0.0953 0.557606,-0.70375 0.727692,-1.10536 0.462861,-1.09291 1.057492,-3.58089 2.295008,-9.60252 l 0.476101,-2.31666 0.260676,-0.24712 c 0.143372,-0.13592 0.348745,-0.30333 0.456385,-0.37202 0.107641,-0.0687 0.183471,-0.137 0.168512,-0.15182 -0.01496,-0.0148 0.01165,-0.0267 0.05912,-0.0263 0.04748,3.2e-4 0.174487,-0.0138 0.282257,-0.0313 0.419829,-0.0684 0.551039,0.18119 0.506669,0.96375 -0.0628,1.10769 -0.97709,4.29915 -3.404465,11.88394 -0.0646,0.20185 -0.223705,0.6934 -0.353573,1.09233 l -0.236122,0.72532 -0.656955,0.24503 c -0.807929,0.30134 -1.540751,0.65604 -1.827539,0.88458 -0.373417,0.29758 -0.382946,0.45703 -0.03614,0.60475 0.208779,0.0889 0.299401,0.0965 1.01491,0.0849 0.985165,-0.016 0.957366,-0.0336 1.044014,0.65845 0.117437,0.9379 0.351564,1.17618 0.684128,0.69628 0.150827,-0.21766 0.288923,-0.56419 0.426128,-1.06933 0.05825,-0.21446 0.140983,-0.47251 0.183845,-0.57343 0.164364,-0.38701 0.452363,-0.54652 0.788466,-0.43669 0.31349,0.10243 0.888625,0.7195 1.25147,1.34271 0.06978,0.11985 0.152072,0.21791 0.182876,0.21791 0.164281,0 0.491178,-0.50355 0.491178,-0.75661 0,-0.37485 -0.316631,-0.8962 -0.973833,-1.60344 -0.699572,-0.75284 -0.862385,-1.20196 -0.819507,-2.26064 0.04774,-1.17869 0.336333,-2.07369 1.409344,-4.37071 0.538256,-1.15227 0.527776,-1.12602 0.686965,-1.7203 0.0676,-0.25231 0.40387,-1.33609 0.74728,-2.40841 0.34341,-1.07231 0.68028,-2.1561 0.7486,-2.40841 0.11753,-0.43407 0.1331,-0.46305 0.28948,-0.53885 0.2392,-0.11593 1.10865,-0.1245 1.10865,-0.0109 0,0.0296 0.0403,0.09 0.0897,0.13422 0.0493,0.0442 0.13704,0.17641 0.19494,0.29382 0.16003,0.32449 0.1487,1.05728 -0.026,1.68048 -0.22924,0.81789 -0.86232,2.43665 -1.92905,4.9325 -1.730359,4.04857 -1.919031,4.50734 -2.044187,4.97065 -0.0756,0.27987 -0.03711,0.35256 0.607078,1.14643 0.930039,1.14615 1.182439,1.59317 1.183859,2.09673 8.4e-4,0.29734 -0.003,0.30761 -0.4151,0.9863 -0.22877,0.37722 -0.52185,0.79422 -0.651279,0.92668 -0.22062,0.22578 -0.24947,0.24085 -0.461334,0.24085 -0.318584,0 -0.587991,-0.14475 -0.979776,-0.52642 l -0.333675,-0.32506 -0.0731,0.15177 c -0.153733,0.3192 -0.520854,0.81843 -0.81524,1.10862 -0.421628,0.41562 -0.626062,0.51718 -1.088274,0.54064 -0.345638,0.0175 -0.386713,0.01 -0.60837,-0.11911 z m 1.035858,-0.094 c 0.464833,-0.21772 1.15259,-0.9906 1.399047,-1.57218 0.04021,-0.0949 0.09955,-0.17275 0.131864,-0.17301 0.03231,-2.7e-4 0.219961,0.16063 0.416997,0.35752 0.610524,0.61007 0.944824,0.69213 1.29349,0.31748 0.216924,-0.23308 0.934324,-1.3625 1.019594,-1.60516 0.14884,-0.42356 -0.1373,-0.97662 -1.148194,-2.21925 -0.284424,-0.34963 -0.559335,-0.72133 -0.610909,-0.82598 l -0.09377,-0.19029 0.127054,-0.40608 c 0.154604,-0.49414 0.584436,-1.54767 1.485199,-3.64024 0.3747,-0.87046 0.75012,-1.74781 0.83425,-1.94966 0.0841,-0.20185 0.28215,-0.67665 0.44001,-1.05511 0.47724,-1.14411 1.05737,-2.69747 1.18556,-3.17443 0.0791,-0.29427 0.12329,-0.58441 0.12789,-0.83959 0.006,-0.34916 -0.007,-0.41872 -0.13196,-0.66518 -0.10373,-0.20541 -0.18602,-0.30125 -0.32433,-0.37771 -0.23202,-0.12828 -0.62399,-0.13909 -0.85654,-0.0236 -0.14438,0.0717 -0.17037,0.11433 -0.24458,0.40133 -0.0902,0.34892 -0.33516,1.13651 -0.79892,2.56897 -0.16338,0.50462 -0.41377,1.30972 -0.55643,1.7891 -0.14267,0.47939 -0.29138,0.97484 -0.330473,1.10099 -0.0391,0.12616 -0.27806,0.66836 -0.531049,1.2049 -1.039701,2.20504 -1.36427,3.19024 -1.416626,4.30004 -0.04483,0.95025 0.145459,1.44857 0.825135,2.16084 0.238981,0.25045 0.514798,0.57522 0.612926,0.72172 0.461984,0.68974 0.466614,1.32204 0.01258,1.71675 -0.243427,0.21162 -0.350926,0.19666 -0.492237,-0.0685 -0.293805,-0.55131 -0.908659,-1.23641 -1.228325,-1.36866 -0.318052,-0.13157 -0.560664,0.0985 -0.744146,0.70558 -0.414371,1.3711 -0.618463,1.69421 -1.008854,1.5972 -0.188794,-0.0469 -0.303969,-0.32511 -0.377006,-0.91062 -0.09077,-0.72766 -0.05595,-0.70474 -1.041727,-0.68581 -0.704329,0.0135 -0.803872,0.006 -0.99418,-0.0776 -0.360899,-0.15806 -0.39628,-0.42927 -0.09203,-0.70542 0.349506,-0.31723 1.115412,-0.6943 2.171612,-1.06914 l 0.415067,-0.1473 0.204285,-0.65927 c 0.112357,-0.3626 0.222202,-0.70055 0.244101,-0.75102 0.047,-0.10829 0.292061,-0.86902 0.945809,-2.93596 1.420324,-4.49062 2.381276,-7.82709 2.548728,-8.84931 0.12405,-0.75724 0.0662,-1.16055 -0.182552,-1.27276 -0.17226,-0.0777 -0.626311,0.15746 -1.008223,0.52221 l -0.300855,0.28734 -0.404862,1.9726 c -1.607625,7.83279 -2.154673,9.91982 -2.81723,10.74798 -0.228229,0.28528 -1.209894,1.18286 -1.870486,1.71027 -0.313532,0.25032 -0.620414,0.52229 -0.681961,0.60437 -0.400121,0.53361 -0.225006,1.10444 0.441381,1.43878 0.266834,0.13387 0.856104,0.29225 1.097733,0.29504 0.165426,0.002 0.167664,0.005 0.408401,0.50083 0.28537,0.58817 0.616603,1.00336 0.952743,1.19423 0.319876,0.18164 0.563658,0.18236 0.947001,0.003 z m -2.489305,-3.71061 c 0,-0.021 0.03127,-0.0382 0.0695,-0.0382 0.03822,0 0.0695,0.0172 0.0695,0.0382 0,0.021 -0.03128,0.0382 -0.0695,0.0382 -0.03822,0 -0.0695,-0.0172 -0.0695,-0.0382 z m 15.868637,-2.47867 c -0.20722,-0.0932 -0.41854,-0.31153 -0.6027,-0.62267 -0.15861,-0.26798 -0.43939,-1.04602 -0.43939,-1.21757 0,-0.12297 0.0165,-0.13563 0.22008,-0.16884 0.12105,-0.0197 0.37145,-0.0344 0.55645,-0.0325 0.2924,0.003 0.38323,0.0263 0.69499,0.17852 0.47964,0.23422 0.91206,0.65282 0.9591,0.92846 0.0452,0.2651 -0.0362,0.47675 -0.26079,0.67763 -0.37045,0.33137 -0.7633,0.42088 -1.12774,0.25697 z m 0.65209,-0.0929 c 0.25398,-0.11421 0.52982,-0.36085 0.60632,-0.54213 0.0541,-0.12826 0.0525,-0.17387 -0.0119,-0.33323 -0.1463,-0.36202 -0.85767,-0.87112 -1.34254,-0.96081 -0.19455,-0.036 -0.78856,0.008 -0.84377,0.0631 -0.032,0.0317 0.17642,0.62422 0.3396,0.96525 0.19154,0.40029 0.446,0.69799 0.69068,0.80803 0.23551,0.10591 0.32573,0.10588 0.56161,-1.9e-4 z m -6.62864,-20.58811 c -0.79427,-0.10039 -1.85767,-0.36392 -3.00045,-0.74356 -0.86942,-0.28882 -1.01503,-0.36439 -1.226704,-0.63664 -0.13241,-0.1703 -0.475642,-0.72955 -0.475642,-0.77499 0,-0.0131 -0.0834,-0.14154 -0.185332,-0.28542 -0.217323,-0.30675 -0.223744,-0.3778 -0.09608,-1.06303 0.434383,-2.33147 1.519758,-4.00381 3.004548,-4.62939 0.98054,-0.41313 2.3789,-0.33989 4.04147,0.21168 1.48569,0.49288 2.46336,1.21061 2.94788,2.1641 0.20174,0.39699 0.26721,0.71094 0.26483,1.26993 -0.003,0.80318 -0.20176,1.3181 -0.89974,2.33566 -0.24007,0.34999 -0.48052,0.70049 -0.53434,0.77889 -0.16312,0.23759 -0.77711,0.78681 -1.06632,0.95383 -0.60304,0.34827 -1.07786,0.45342 -2.00213,0.44338 -0.34815,-0.004 -0.69555,-0.0148 -0.772,-0.0244 z m 1.65233,-0.12493 c 1.06007,-0.20109 1.69943,-0.72663 2.71265,-2.22974 0.40311,-0.59801 0.52483,-0.83465 0.68405,-1.32985 0.47998,-1.4928 -0.34157,-2.92991 -2.16342,-3.78439 -0.89593,-0.42021 -2.27219,-0.78357 -3.16361,-0.83525 -0.52339,-0.0303 -1.15982,0.0736 -1.60898,0.26287 -1.50868,0.63565 -2.602001,2.35362 -3.026384,4.75546 l -0.0826,0.46751 0.116156,0.1518 c 0.06388,0.0835 0.217013,0.32727 0.340282,0.54173 0.321496,0.55933 0.466816,0.76117 0.644856,0.89562 0.32755,0.24736 2.64644,0.93214 3.71151,1.09602 0.54899,0.0845 1.41312,0.0883 1.83549,0.008 z m -1.14267,-1.29395 c -0.50604,-0.0897 -1.29146,-0.29995 -1.87649,-0.50225 -0.44815,-0.15497 -0.56565,-0.19059 -0.66023,-0.20015 -0.0191,-0.002 -0.0348,-0.0321 -0.0348,-0.067 0,-0.0495 0.10271,-0.0646 0.46807,-0.0683 1.25843,-0.013 2.36917,-0.38283 2.98782,-0.99474 0.639,-0.63204 0.81338,-1.45223 0.54563,-2.56634 -0.0667,-0.27754 -0.13134,-0.65429 -0.14365,-0.83721 l -0.0224,-0.33259 0.13466,0 c 0.46053,0 1.43171,1.81174 1.65707,3.09127 0.24275,1.37827 -0.16198,2.21223 -1.20406,2.48097 -0.34631,0.0893 -1.3385,0.0874 -1.8517,-0.004 z m 1.75234,-0.0864 c 0.70588,-0.18204 1.10784,-0.60797 1.23678,-1.31053 0.153,-0.83369 -0.27235,-2.27558 -1.00732,-3.41476 -0.21195,-0.32851 -0.50742,-0.66518 -0.58378,-0.66518 -0.0635,0 -0.01,0.41369 0.13077,1.00923 0.1087,0.46021 0.12205,0.59784 0.10457,1.07806 -0.0233,0.64084 -0.10335,0.91975 -0.38145,1.32955 -0.32213,0.47466 -0.89124,0.85228 -1.6199,1.07483 -0.41489,0.12671 -1.08006,0.23298 -1.45984,0.23321 -0.17837,1e-4 -0.2811,0.0168 -0.25483,0.0414 0.10832,0.10136 1.50899,0.49914 2.18029,0.61917 0.49662,0.0888 1.32016,0.0913 1.65471,0.005 z m -24.195026,42.08348 c -0.580237,-0.289 -1.364014,-1.9058 -1.993531,-4.11239 -0.322084,-1.12897 -0.56384,-2.44338 -0.491126,-2.67022 0.0527,-0.16441 0.299441,-0.12056 0.609031,0.10823 0.360369,0.26631 1.326209,1.24064 2.326207,2.34666 0.453362,0.50142 1.228122,1.25922 1.315469,1.28667 0.118503,0.0372 0.244188,-0.0537 0.704685,-0.50959 0.610108,-0.60407 2.208078,-2.52556 3.407343,-4.09719 0.176458,-0.23124 0.278027,-0.32704 0.331957,-0.31308 0.15908,0.0412 1.706439,1.01943 1.706847,1.07907 0.0013,0.18371 -4.473276,4.69854 -5.605862,5.65634 -1.398247,1.1825 -1.882125,1.4391 -2.31102,1.2255 z m 0.655761,-0.1608 c 0.677071,-0.3397 1.809204,-1.3147 3.720233,-3.204 1.539346,-1.52181 3.321079,-3.3769 3.346394,-3.48416 0.01182,-0.0501 -1.140813,-0.79337 -1.264569,-0.81546 -0.02548,-0.005 -0.08675,-0.0456 -0.136152,-0.0911 -0.0494,-0.0456 -0.101525,-0.0816 -0.115833,-0.0801 -0.01431,0.002 -0.234511,0.27421 -0.489342,0.60605 -0.326538,0.4252 -0.459392,0.63433 -0.449993,0.70834 0.0073,0.0578 -0.0095,0.10501 -0.03748,0.10501 -0.02795,0 -0.03808,-0.0204 -0.02251,-0.0453 0.01557,-0.0249 0.0012,-0.0345 -0.03202,-0.0213 -0.03318,0.0132 -0.216696,0.22177 -0.40782,0.46349 -0.191123,0.24171 -0.488204,0.60742 -0.66018,0.81268 -0.171976,0.20525 -0.312712,0.40932 -0.312748,0.45347 -3.5e-5,0.0442 -0.02729,0.0803 -0.06058,0.0803 -0.03328,0 -0.218742,0.18063 -0.412136,0.4014 -0.369249,0.42153 -1.007444,1.08231 -1.182427,1.22429 -0.105896,0.0859 -0.493171,0.18178 -0.449088,0.11116 0.01356,-0.0217 0.0043,-0.0395 -0.02056,-0.0395 -0.02486,0 -0.05572,0.0258 -0.06858,0.0573 -0.01524,0.0374 -0.02464,0.032 -0.02703,-0.0153 -0.002,-0.04 -0.102695,-0.16554 -0.22374,-0.27903 -0.275867,-0.25866 -1.301757,-1.33806 -1.389179,-1.46164 -0.03579,-0.0506 -0.08771,-0.0781 -0.115387,-0.0612 -0.02836,0.0174 -0.03713,0.01 -0.02009,-0.0176 0.0361,-0.0579 -1.619851,-1.75486 -1.712394,-1.75486 -0.03529,0 -0.06582,-0.0361 -0.06783,-0.0803 -0.002,-0.0442 -0.0135,-0.0565 -0.02554,-0.0274 -0.01377,0.0333 -0.06315,0.0121 -0.133235,-0.0573 -0.12012,-0.11893 -0.250894,-0.14549 -0.260547,-0.0529 -0.05537,0.53107 0.333061,2.2131 0.867049,3.75455 0.624885,1.80381 1.314454,2.93161 1.792481,2.93161 0.07123,0 0.238097,-0.055 0.370818,-0.121 z m 39.818235,-9.07721 c -0.54317,-0.0872 -1.05613,-0.231 -1.40322,-0.39339 -0.39846,-0.18642 -0.41615,-0.21538 -0.32717,-0.53551 0.25109,-0.90339 0.31115,-2.06298 0.15028,-2.90118 -0.11061,-0.57625 -0.35455,-1.29436 -0.61426,-1.80825 -0.80268,-1.58821 -2.324,-3.13296 -3.8281,-3.88705 -0.15263,-0.0765 -0.26308,-0.16086 -0.25483,-0.19459 0.008,-0.0327 0.27519,-0.28414 0.59373,-0.55868 4.5794,-3.94676 8.00788,-7.45989 9.32647,-9.55674 0.37092,-0.58985 0.41618,-0.63372 0.71759,-0.69567 0.50357,-0.10351 1.20594,0.13585 1.62963,0.55535 0.76604,0.75846 0.78416,2.0392 0.0489,3.45614 -0.50161,0.96665 -1.19204,1.83932 -2.6352,3.3307 -0.5003,0.51701 -1.39808,1.44597 -1.99508,2.06435 -0.59699,0.61838 -1.37644,1.41636 -1.73211,1.77329 l -0.64666,0.64898 0.20313,0.1462 c 1.11102,0.79971 2.39109,1.34795 3.43814,1.47252 0.71491,0.0851 1.12574,0.3665 1.33397,0.91385 0.19356,0.50877 0.0234,1.00056 -0.42219,1.22023 -0.6028,0.29717 -1.77288,0.21679 -3.03046,-0.20819 -0.22695,-0.0767 -0.40417,-0.13093 -0.39383,-0.12052 2.11436,2.12644 2.47956,2.56694 2.78341,3.35725 0.15343,0.39905 0.14901,0.9272 -0.0103,1.23391 -0.14973,0.28824 -0.42479,0.4969 -0.82183,0.62344 -0.40469,0.12898 -1.49738,0.16189 -2.10999,0.0636 z m 2.01218,-0.15447 c 0.60603,-0.19182 0.94234,-0.58848 0.94332,-1.11259 4.6e-4,-0.14204 -0.0229,-0.30719 -0.0516,-0.367 -0.0286,-0.0598 -0.075,-0.19294 -0.10296,-0.29585 -0.0632,-0.23234 -0.61171,-1.06159 -0.92429,-1.39743 -0.1282,-0.13773 -0.30939,-0.333 -0.40266,-0.43393 -0.0933,-0.10092 -0.15695,-0.15912 -0.14152,-0.12932 0.0154,0.0298 0.008,0.0665 -0.0166,0.0815 -0.0246,0.015 -0.0371,-0.0118 -0.0278,-0.0596 0.0121,-0.0621 -0.17032,-0.26872 -0.63993,-0.72479 -0.87016,-0.8451 -0.86012,-0.94364 0.0647,-0.63465 1.39,0.46442 2.55593,0.47053 3.01521,0.0158 0.23694,-0.23459 0.29947,-0.47318 0.20677,-0.7889 -0.16857,-0.57411 -0.61235,-0.8973 -1.35951,-0.99006 -0.68042,-0.0845 -1.30244,-0.27931 -2.02711,-0.63497 -0.69547,-0.34132 -1.64482,-0.95396 -1.64482,-1.06144 0,-0.0386 0.29759,-0.37029 0.66132,-0.73719 0.36373,-0.3669 1.10863,-1.13157 1.65534,-1.69926 1.17028,-1.21522 1.75375,-1.81917 2.39319,-2.47722 1.2146,-1.24995 1.89184,-2.13526 2.37705,-3.10732 0.62223,-1.2466 0.64933,-2.23182 0.0819,-2.97818 -0.0822,-0.10806 -0.16722,-0.19711 -0.18904,-0.19789 -0.0218,-7.8e-4 -0.0772,-0.0487 -0.12316,-0.10653 -0.1221,-0.15368 -0.49793,-0.34178 -0.83973,-0.42026 -0.24617,-0.0565 -0.33869,-0.0587 -0.52664,-0.0124 -0.25648,0.0631 -0.25377,0.0601 -0.85581,0.97362 -0.79154,1.20111 -1.95209,2.51173 -4.12313,4.65626 -0.93231,0.92093 -1.79884,1.76605 -1.92562,1.87804 -0.12677,0.11199 -0.3457,0.3081 -0.4865,0.43581 -0.1408,0.1277 -0.46397,0.42073 -0.71816,0.65117 -0.25419,0.23044 -0.52998,0.47489 -0.61287,0.54321 -0.0829,0.0683 -0.137,0.14617 -0.12026,0.173 0.0168,0.0268 0.0101,0.0363 -0.0148,0.0211 -0.0249,-0.0152 -0.41115,0.28841 -0.8584,0.67474 l -0.81318,0.7024 0.21416,0.10284 c 0.86335,0.41456 2.04072,1.38338 2.75681,2.26847 1.08858,1.34549 1.6149,2.56195 1.75179,4.0488 0.0613,0.66576 0.0126,1.43101 -0.13219,2.07926 -0.12523,0.56047 -0.1281,0.55092 0.21621,0.71929 0.32792,0.16035 0.87794,0.31469 1.45949,0.40955 0.54517,0.0889 1.49334,0.0546 1.88097,-0.0681 z m -1.16281,-3.98908 c 0,-0.021 0.0313,-0.0382 0.0695,-0.0382 0.0382,0 0.0695,0.0172 0.0695,0.0382 0,0.021 -0.0313,0.0382 -0.0695,0.0382 -0.0382,0 -0.0695,-0.0172 -0.0695,-0.0382 z m -0.44207,-0.51532 c -0.0168,-0.0269 -0.0194,-0.0599 -0.006,-0.0734 0.0332,-0.0329 0.12356,0.025 0.12356,0.0792 0,0.0586 -0.08,0.0547 -0.11774,-0.006 z m 2.43439,-8.36904 c 0,-0.0421 0.0261,-0.0679 0.0579,-0.0574 0.0656,0.0217 0.0584,0.0954 -0.0116,0.11851 -0.0255,0.008 -0.0463,-0.0191 -0.0463,-0.0612 z m -32.8269,-24.70708 c -0.178382,-0.0242 -0.522404,-0.0976 -0.764494,-0.1631 -0.24209,-0.0655 -0.492288,-0.13014 -0.555995,-0.1436 -0.195447,-0.0413 -0.230939,-0.19428 -0.04507,-0.19428 0.139545,0 0.921317,-0.41498 1.24191,-0.65923 0.614883,-0.46846 0.96572,-0.91432 1.205248,-1.53167 0.111318,-0.2869 0.120104,-0.36399 0.121523,-1.06619 0.0015,-0.72445 0.0056,-0.7575 0.09534,-0.77024 0.203264,-0.0288 0.562798,0.53511 0.812777,1.27486 0.436075,1.29045 0.351208,2.38343 -0.225093,2.89893 -0.369131,0.33019 -1.079966,0.4638 -1.886145,0.35452 z m 1.266054,-0.15879 c 0.13468,-0.0396 0.285423,-0.11215 0.334985,-0.16122 0.04956,-0.0491 0.104407,-0.0892 0.121877,-0.0892 0.05832,0 0.246234,-0.19866 0.246234,-0.26031 0,-0.0335 0.01768,-0.0608 0.0393,-0.0608 0.05291,0 0.180423,-0.29631 0.2369,-0.55049 0.135931,-0.61176 -0.05074,-1.59917 -0.465292,-2.4612 -0.170722,-0.35501 -0.380798,-0.65827 -0.455996,-0.65827 -0.01899,0 -0.03277,0.32514 -0.03063,0.72253 0.0035,0.64008 -0.0082,0.7572 -0.102208,1.02645 -0.122908,0.35207 -0.345975,0.73471 -0.611069,1.0482 -0.102476,0.12119 -0.186319,0.2549 -0.186319,0.29713 0,0.0476 -0.03081,0.0717 -0.08108,0.0635 -0.0446,-0.007 -0.206182,0.0788 -0.35908,0.19126 -0.152899,0.1125 -0.471816,0.30312 -0.708705,0.42361 -0.491564,0.25001 -0.499664,0.23111 0.171821,0.40086 0.757503,0.19149 1.354531,0.21344 1.849271,0.068 z"
       id="path2996"
       inkscape:connector-curvature="0" />
  </g>
</svg>
