<?xml version="1.0" encoding="UTF-8" standalone="no"?>
<!-- Created with Inkscape (http://www.inkscape.org/) -->

<svg
   xmlns:dc="http://purl.org/dc/elements/1.1/"
   xmlns:cc="http://creativecommons.org/ns#"
   xmlns:rdf="http://www.w3.org/1999/02/22-rdf-syntax-ns#"
   xmlns:svg="http://www.w3.org/2000/svg"
   xmlns="http://www.w3.org/2000/svg"
   xmlns:sodipodi="http://sodipodi.sourceforge.net/DTD/sodipodi-0.dtd"
   xmlns:inkscape="http://www.inkscape.org/namespaces/inkscape"
   version="1.1"
   id="svg18"
   width="141.73228"
   height="141.73228"
   viewBox="0 0 141.73229 141.73229"
   sodipodi:docname="flipflop.gcode"
   inkscape:version="0.48.5 r10040">
  <metadata
     id="metadata24">
    <rdf:RDF>
      <cc:Work
         rdf:about="">
        <dc:format>image/svg+xml</dc:format>
        <dc:type
           rdf:resource="http://purl.org/dc/dcmitype/StillImage" />
        <dc:title></dc:title>
      </cc:Work>
    </rdf:RDF>
  </metadata>
  <defs
     id="defs22" />
  <sodipodi:namedview
     pagecolor="#ffffff"
     bordercolor="#666666"
     borderopacity="1"
     objecttolerance="10"
     gridtolerance="10"
     guidetolerance="10"
     inkscape:pageopacity="0"
     inkscape:pageshadow="2"
     inkscape:window-width="1920"
     inkscape:window-height="1017"
     id="namedview20"
     showgrid="false"
     inkscape:zoom="3.0216646"
     inkscape:cx="111.9842"
     inkscape:cy="91.810774"
     inkscape:window-x="-8"
     inkscape:window-y="-8"
     inkscape:window-maximized="1"
     inkscape:current-layer="svg18"
     units="cm"
     showguides="false"
     inkscape:guide-bbox="true"
     borderlayer="true"
     fit-margin-left="2"
     fit-margin-bottom="2">
    <sodipodi:guide
       orientation="1,0"
       position="-30.421603,178.55141"
       id="guide4096" />
    <sodipodi:guide
       orientation="0,1"
       position="2.3401233,281.04881"
       id="guide4098" />
    <sodipodi:guide
       orientation="-0.70710678,0.70710678"
       position="34.633825,228.39604"
       id="guide4100" />
  </sodipodi:namedview>
  <path
     style="fill:#000000;stroke-width:0.32000002"
     d="m 95.552847,14.149746 c -3.52377,0.95577 -7.609506,3.027145 -8.723924,7.747828 -0.767593,4.334688 0.504364,8.750641 2.078884,12.574282 -1.755382,2.892441 -1.569869,7.091804 -0.2732,10.187115 1.42049,2.832484 4.19793,3.977774 5.6801,6.738076 0.51292,3.792671 0.54662,7.697232 1.33243,11.422958 1.26637,3.764064 4.815423,4.993865 7.813783,5.039846 3.6668,0.287109 7.74908,-0.0059 10.7223,-3.003509 1.96412,-2.517777 1.27924,-6.303029 1.09312,-9.438941 -0.66756,-2.884383 -0.23232,-6.190526 1.38913,-8.466755 1.14998,-3.365833 2.0165,-7.799949 -0.0453,-10.90476 -1.96736,-1.013555 -2.09028,-3.94548 -2.04606,-6.216992 0.0256,-4.885861 -2.4156,-9.39572 -5.7879,-11.733602 -3.65121,-2.635469 -7.9344,-3.644416 -12.109683,-3.819334 -0.36549,-0.08433 -0.81725,0.196919 -1.12366,-0.126212 z m 1.3865,0.53347 c 5.268753,0.308798 11.042683,1.824739 14.673883,6.988046 1.92538,2.689861 2.59284,6.441935 2.62238,9.960072 0.14455,3.478767 -2.34995,0.04902 -3.74206,-0.246753 -3.97694,-2.116374 -8.20114,-3.348505 -12.372683,-4.701439 -1.00518,-0.703466 -0.76611,-4.260418 -2.46458,-2.588898 0.63351,2.244107 -0.92435,4.075259 -2.31703,5.122577 -1.52762,0.434164 -2.33056,4.201059 -3.85837,2.831151 -0.88241,-1.906556 -1.10652,-4.16252 -1.586296,-6.249261 -0.467721,-3.44678 0.363566,-7.654193 3.139266,-9.191497 1.79766,-1.245431 3.84805,-1.921241 5.90549,-1.923998 z m -9.268679,6.166081 c -0.928973,4.175316 0.266142,8.518284 1.803149,12.223886 -1.619713,0.204037 -1.471375,-3.942505 -2.165009,-5.456941 -0.439101,-2.220951 -0.500974,-4.684701 0.36186,-6.766945 z m 8.865219,3.525876 c 1.30203,0.56463 -0.37862,3.327712 -0.25534,1.128815 0.0504,-0.387415 0.14618,-0.762007 0.25534,-1.128815 z m 0.20333,2.554355 c 5.156933,1.018176 10.124023,3.191048 14.943003,5.635568 2.32214,1.329126 5.15181,3.050027 5.59787,6.551636 -0.99455,0.865595 -1.65732,-3.22595 -3.20198,-2.951239 -5.02012,-3.009944 -10.40091,-4.925749 -15.787583,-6.611394 -2.93951,-0.0077 -4.48845,3.627512 -6.61317,5.560309 -1.43804,0.895059 -2.00769,3.267259 -3.39918,4.02947 -0.358136,-2.664923 1.26526,-5.038497 2.7212,-6.767723 1.74722,-1.846579 3.44158,-3.83022 5.39902,-5.3156 l 0.34082,-0.131027 0,0 z m 0.62425,2.942653 c 5.587123,1.70917 11.157263,3.649978 16.436233,6.537014 0.97028,2.72711 0.34492,5.740637 0.31439,8.600213 -1.24021,2.109945 -3.26057,3.725495 -3.7066,6.417945 0.18787,3.49634 2.73553,0.520477 4.04826,-0.02362 0.58466,1.739715 0.14212,4.034836 0.56361,5.975736 0.21828,2.651987 0.35877,6.056845 -1.6694,7.717466 -2.98596,2.680613 -6.89757,2.607799 -10.41163,2.372487 -2.64898,-0.358711 -5.783863,-2.065007 -6.283353,-5.706565 -0.58492,-3.314623 -0.53639,-6.731356 -0.95756,-10.074718 1.05139,1.336118 3.54773,2.773322 4.603423,0.971701 -0.2274,-2.407313 -2.452993,-3.206292 -3.748273,-4.611642 -1.52022,-1.217279 -2.57867,-3.247923 -2.65711,-5.519507 -0.52031,-2.339466 -2.38015,-4.326827 -1.96539,-6.901776 1.019,-1.916341 2.85232,-2.97143 4.21166,-4.557332 0.41232,-0.390957 0.82334,-0.784447 1.22174,-1.197404 z m -6.2596,6.65652 c 1.31496,3.150268 2.98863,6.304945 3.23292,9.925182 -1.64606,-2.758865 -1.96935,-6.355734 -3.56177,-9.158252 -0.17784,-0.328703 0.0524,-0.704858 0.32885,-0.76693 z m 23.538663,0.100847 0.0799,0.05184 -0.0799,-0.05184 z m 0.13186,0.08878 0.0799,0.05164 -0.0799,-0.05164 z m -26.737545,0.461851 c 0.340852,0.04574 -0.552728,0.0069 0,0 z m 26.649545,0.01709 c 2.31898,0.705745 2.25573,5.655706 -0.0389,6.275492 0.17649,-2.087556 -0.066,-4.184831 0.0389,-6.275492 z M 90.440187,37.39962 c 0.86428,2.424318 2.30923,4.667371 2.42943,7.398666 -0.76674,-0.04481 -2.61494,-2.080162 -3.51546,-3.337659 -1.16718,-1.647038 0.33929,-2.879608 1.08603,-4.061007 z m -1.425,1.003753 -0.0285,0.0967 0.0285,-0.0967 z m -0.56643,2.51839 c 2.78272,4.439211 7.09204,6.604386 10.62047,9.912652 1.662873,1.704376 -0.66773,3.557054 -1.7593,1.551608 -3.42996,-2.656687 -7.59085,-5.134768 -8.99243,-10.243435 -0.0295,-0.4247 0.0223,-0.81828 0.13126,-1.220825 z m 28.475873,0.244474 c 0.86669,3.649557 -1.19058,7.022942 -2.91879,9.701727 -0.78546,1.475957 -4.07016,2.737154 -2.81573,-0.272914 1.55014,-3.467596 4.22441,-5.920316 5.73452,-9.428813 z m -19.849423,7.329177 0.0489,0.02711 -0.0489,-0.02711 z m 1.70547,1.542887 c 0.24046,0.04813 -0.10448,0.105001 0,0 z m 0.2122,0.0977 c 0.15949,0.05369 -0.15373,0.08333 0,0 z m -4.36166,0.771337 c 1.7823,3.074414 0.66241,7.118841 1.6266,10.519087 -0.0886,2.579723 1.92365,4.297306 3.51859,5.437552 -0.53588,0.08798 -2.94594,-1.68994 -3.41291,-3.422713 -1.20695,-2.75093 -0.95793,-6.003072 -1.39998,-9.000987 -0.10847,-1.177976 -0.215,-2.356261 -0.3323,-3.532939 z m 2.94792,2.163678 0.0725,0.04355 -0.0725,-0.04355 z m -2.88196,0.769194 0.0211,0.05539 -0.0211,-0.05539 z m 20.561623,6.271328 -0.0119,0.04194 0.0119,-0.04194 z m -18.060223,3.769293 0.0214,0.05907 -0.0214,-0.05907 z m 0.13038,0.25711 c 0.14696,0.144514 -0.14682,0.0552 0,0 z m 0.0377,0.167765 0.0215,0.02522 -0.0215,-0.02522 z m 1.96474,1.094614 0.0272,0.04152 -0.0272,-0.04152 z m -0.55194,0.35149 -0.0389,0.05104 0.0389,-0.05104 z m 9.207333,1.758533 c 0.33944,0.08238 -0.72629,-0.0411 0,0 z m -1.52881,0.06812 -0.0239,0.0316 0.0239,-0.0316 z m 0.0758,0.291378 c 0.15625,0.0031 -0.1106,0.05849 0,0 z"
     id="path28"
     inkscape:connector-curvature="0" />
</svg>
