<?xml version="1.0" encoding="UTF-8" standalone="no"?>
<!-- Created with Inkscape (http://www.inkscape.org/) -->

<svg
   xmlns:dc="http://purl.org/dc/elements/1.1/"
   xmlns:cc="http://creativecommons.org/ns#"
   xmlns:rdf="http://www.w3.org/1999/02/22-rdf-syntax-ns#"
   xmlns:svg="http://www.w3.org/2000/svg"
   xmlns="http://www.w3.org/2000/svg"
   xmlns:sodipodi="http://sodipodi.sourceforge.net/DTD/sodipodi-0.dtd"
   xmlns:inkscape="http://www.inkscape.org/namespaces/inkscape"
   width="283.46457"
   height="283.46457"
   id="svg2986"
   version="1.1"
   inkscape:version="0.48.5 r10040"
   sodipodi:docname="smurfette.gcode">
  <defs
     id="defs2988" />
  <sodipodi:namedview
     id="base"
     pagecolor="#ffffff"
     bordercolor="#666666"
     borderopacity="1.0"
     inkscape:pageopacity="0.0"
     inkscape:pageshadow="2"
     inkscape:zoom="1.979899"
     inkscape:cx="174.87096"
     inkscape:cy="158.48116"
     inkscape:document-units="px"
     inkscape:current-layer="layer1"
     showgrid="false"
     units="mm"
     inkscape:window-width="1536"
     inkscape:window-height="801"
     inkscape:window-x="-8"
     inkscape:window-y="-8"
     inkscape:window-maximized="1" />
  <metadata
     id="metadata2991">
    <rdf:RDF>
      <cc:Work
         rdf:about="">
        <dc:format>image/svg+xml</dc:format>
        <dc:type
           rdf:resource="http://purl.org/dc/dcmitype/StillImage" />
        <dc:title></dc:title>
      </cc:Work>
    </rdf:RDF>
  </metadata>
  <g
     inkscape:label="Layer 1"
     inkscape:groupmode="layer"
     id="layer1"
     transform="translate(0,-768.89763)">
    <path
       style="fill:#000000"
       d="M 208.5218,903.32435 C 197.62138,900.89 193.90046,887.84971 200.05471,880.14787 203.59759,875.7792 203.06604,866.3166 194.95742,867.2457 191.14107,868.68404 185.84342,868.28528 189.30531,863.56886 190.18519,861.16492 199.44647,857.599 191.88207,858.09476 181.02584,857.67851 168.19042,856.12842 161.68778,847.45041 158.0363,841.36268 163.26436,835.15349 168.48884,831.40659 172.46596,829.234 174.72055,823.37758 168.00555,823.08659 161.43104,820.05859 155.21787,813.09305 156.86211,806.34053 160.94577,799.25982 171.10192,798.21568 179.16493,798.01765 183.71345,797.47581 189.9808,799.12014 193.43231,796.83121 187.25745,794.97432 179.50042,798.64947 174.44104,794.26078 168.92152,787.03919 180.977,783.71448 186.62804,781.67425 199.27285,777.66275 213.57039,780.13598 224.44213,786.83684 236.30847,793.31571 245.73965,805.26178 243.6231,818.02251 242.84186,821.88162 233.07806,827.88015 241.95647,828.79089 250.38505,830.13435 260.06164,828.17633 267.41263,832.91485 274.21625,839.2584 263.81834,846.48861 257.02248,848.0531 249.58316,850.56827 241.31878,849.31977 233.6845,851.17596 240.03384,850.53914 251.7742,850.69121 253.84675,855.1702 246.81468,856.77691 243.85947,862.94603 239.13805,866.34884 235.5345,866.25049 230.77262,870.49468 237.05773,868.73721 245.02969,866.79529 252.51635,871.35919 254.14441,878.33553 258.07356,885.07926 249.06021,886.02903 244.0998,887.21773 239.24878,891.45424 232.26764,891.80593 226.92804,895.0873 224.16619,900.08268 219.96254,905.1019 212.55674,903.86521 211.19689,903.79355 209.84465,903.61137 208.5218,903.32435 z M 216.91936,902.53609 C 222.76635,903.08551 228.65698,891.26366 219.31236,895.15244 212.70644,899.68671 202.98624,896.73861 201.26474,889.4222 198.97106,886.62226 203.15848,880.19922 201.32127,879.79127 196.67113,884.65974 197.38015,892.53108 201.44937,897.57612 204.9401,901.70947 211.23878,903.7265 216.91936,902.53609 z M 214.13001,896.81972 C 219.07117,896.41033 217.3757,893.02195 213.28717,893.52126 204.34626,891.15491 211.44237,882.02615 212.87777,879.16411 212.51384,875.91308 212.99175,872.03785 207.69557,873.48639 202.07278,872.33221 206.75139,872.05679 206.85609,872.04876 199.17895,869.98603 204.77363,881.31463 206.47964,884.31027 204.79299,887.52272 202.21532,878.03548 201.4971,884.18291 199.66731,890.67473 206.47886,897.96325 214.13001,896.81972 z M 226.28197,893.22965 C 236.8411,891.73385 247.15246,885.51787 250.43088,876.23172 250.53996,868.18404 237.49421,867.17404 231.58501,870.78011 230.80422,873.57044 238.4607,868.42042 240.88214,871.11033 248.52966,873.79397 242.42323,880.59648 237.7546,882.81354 232.07138,886.28451 224.80994,888.42222 217.90862,887.16184 212.47184,886.5314 217.93554,877.94108 212.67319,882.22274 205.9532,888.92163 216.23492,895.02363 223.69536,893.51202 L 224.99154,893.41059 226.28197,893.22965 z M 227.58208,886.41984 C 234.41571,884.54633 244.49349,880.41053 243.60328,873.02049 240.57038,869.6735 234.10051,871.23337 233.6845,873.00454 229.89088,872.59271 223.83371,876.82654 228.61711,871.38231 231.35408,869.42182 235.44442,865.05473 228.80539,865.62147 221.45277,863.62047 214.89007,869.51162 214.28341,875.71118 215.23754,883.76542 226.68164,878.44244 231.90784,880.55693 227.05763,882.98201 219.76451,879.84679 215.82066,882.6684 214.94671,888.5922 223.70527,887.25053 227.58208,886.41984 z M 250.25662,885.14585 C 255.71258,885.38799 253.82865,875.28252 250.03017,881.82908 247.96816,883.02672 245.3945,886.94387 250.25662,885.14585 z M 251.41402,880.2471 C 254.08862,875.482 248.32474,882.13665 249.82926,881.8838 250.39748,881.36914 250.9054,880.80701 251.41402,880.2471 z M 212.23278,872.56404 C 209.72095,872.26554 207.5755,872.91336 212.23278,872.56404 z M 216.35772,869.14983 C 220.38514,862.04787 230.57232,864.60654 237.56938,865.58386 243.97831,864.11177 244.79499,855.89181 251.82396,855.07344 247.93774,851.97034 240.02339,849.77938 235.35409,852.76601 234.29886,857.63094 230.211,846.8007 226.70307,847.18802 221.70561,850.2756 218.62312,856.73877 212.10901,857.24476 207.6157,857.14056 198.07855,852.4985 201.07194,859.83379 201.95155,864.07668 199.41535,862.38367 198.97799,859.28867 194.82352,856.32961 185.73,867.83446 193.35715,866.95388 199.70679,864.4282 204.17978,869.9987 210.12703,870.83114 212.34964,871.32298 214.98723,870.92066 216.35772,869.14983 z M 208.53605,869.16197 C 207.26051,865.42951 216.02299,863.81161 211.95908,868.61934 211.32603,869.66489 209.56383,869.86315 208.53605,869.16197 z M 211.52485,867.40744 C 213.11198,862.78335 207.05174,871.39446 211.29959,867.75651 L 211.47848,867.4793 211.52485,867.40744 z M 200.58134,866.21937 C 201.82913,863.63693 209.3821,863.85534 203.86395,866.18233 202.96218,866.44739 201.12227,867.44167 200.58134,866.21937 z M 204.24469,865.26755 C 201.74768,864.73256 201.87975,867.70013 204.24469,865.26755 z M 192.74854,864.76959 C 193.06698,862.56953 198.57919,862.60573 194.40858,864.11914 197.37597,864.10777 199.47789,862.0878 195.77897,864.77139 194.90683,865.26016 193.53036,865.56213 192.74854,864.76959 z M 218.37479,864.28501 C 220.88217,859.33632 223.69908,864.57156 218.69089,864.82837 L 218.47363,864.62886 218.37479,864.28501 z M 220.67416,863.65065 C 219.91774,861.93783 218.95059,865.71439 220.67416,863.65065 z M 233.51129,862.09597 C 228.6137,857.26714 244.15783,862.20619 235.19982,863.06748 L 234.5921,862.81309 233.51129,862.09597 z M 237.73824,861.96653 C 233.28042,857.72397 232.41079,863.38161 237.73824,861.96653 z M 223.18003,859.73972 C 224.7872,857.37807 224.52294,860.51965 223.15759,860.42334 L 223.18003,859.73972 z M 237.31957,858.77242 C 236.28684,854.6306 243.48457,860.72284 237.31957,858.77242 z M 239.30825,858.48581 C 238.14368,856.87815 238.36803,859.94293 239.30825,858.48581 z M 239.17742,856.27462 C 234.43088,853.2035 251.17268,855.17496 242.03675,856.51124 241.0774,856.53146 240.11646,856.44717 239.17742,856.27462 z M 243.75661,855.44059 C 240.25271,853.39384 237.43469,857.21684 243.75661,855.44059 z M 198.35716,857.54347 C 200.69125,853.1697 191.10178,858.13058 188.49607,857.04465 184.88593,855.12525 182.18827,851.5175 177.46027,854.38855 171.06733,854.43693 163.14094,846.71658 168.21018,841.617 169.65815,836.77436 180.1379,835.2717 173.79898,830.34564 169.75196,828.01814 165.81627,835.87157 163.33881,838.51179 159.53403,844.56877 165.21765,851.02876 171.36421,853.54857 179.63196,857.11834 189.27156,858.01589 198.35716,857.54347 z M 196.96346,855.22334 C 201.42032,853.07217 190.811,852.42536 189.05488,853.86357 181.04743,855.09814 196.9393,857.11728 196.96346,855.22334 z M 215.14013,855.40982 C 220.82312,850.6441 229.12817,843.22632 225.42128,835.88264 221.25193,831.84398 210.94993,837.49761 214.40246,840.99161 213.35368,846.92655 201.91309,849.95655 199.54252,843.95019 200.19307,837.99837 193.06279,835.25711 187.89879,833.43069 185.54364,832.51566 177.80076,833.49417 183.8767,834.11177 191.02503,836.78962 180.67742,842.65034 181.15494,839.15588 188.83941,838.22307 181.99241,832.01333 177.5051,835.19471 174.33839,835.65789 174.49574,839.00296 177.98651,838.68226 174.04893,835.90721 166.13301,843.87884 174.67733,841.6554 181.15429,842.5076 176.91382,848.53017 172.71242,848.51889 175.91876,849.05037 181.56075,846.56306 183.86461,850.91268 189.69586,854.85986 196.02684,849.4391 201.68619,853.8682 205.83364,855.19929 210.78289,856.84227 215.14013,855.40982 z M 178.96641,852.78898 C 185.74599,847.14713 167.20832,848.96134 174.58118,853.18601 176.00643,853.66744 177.68053,853.51275 178.96641,852.78898 z M 183.83457,852.39537 C 180.80728,851.06912 183.45807,853.60951 183.83457,852.39537 z M 236.46462,849.86068 C 242.96488,850.03943 253.78902,843.83116 247.15781,837.92963 244.71371,835.85619 240.18114,833.26945 246.14759,835.87529 254.16326,838.93912 249.36567,848.31478 242.42504,849.64095 247.27218,849.69902 252.85248,846.95908 256.93425,844.10591 261.02264,843.18177 251.70437,848.16352 252.05412,848.61042 260.15189,848.89147 264.01886,840.40074 262.56468,835.00892 264.681,836.72772 261.78208,848.04598 264.94817,841.66583 265.11031,839.11276 264.04063,834.75102 265.99712,839.48168 266.43145,845.08351 270.37957,833.38371 265.06832,833.06709 257.50809,828.56407 247.97212,830.81658 239.58449,829.4099 232.50461,829.54497 238.32603,818.74689 231.92386,821.02825 229.64463,822.90665 228.0943,831.4235 229.32711,824.97776 232.30318,820.91702 232.22949,817.05542 227.06612,814.55605 221.79934,808.81461 219.16762,819.7278 215.35226,822.21598 211.1456,826.20176 212.62034,837.99223 220.82034,833.6256 229.1265,831.67544 228.34285,841.39813 233.43702,844.21685 234.05634,847.0166 232.06745,848.73114 232.58769,844.75627 230.66083,847.6987 231.42998,844.88898 230.14344,844.26582 227.2894,846.70172 233.25958,852.56611 236.46462,849.86068 z M 253.96167,838.49013 C 248.8248,834.35369 261.2049,842.92301 254.2421,838.68612 L 253.96167,838.49013 z M 237.46606,833.4425 C 235.23117,833.11757 228.49712,830.18879 234.59419,831.98063 237.5066,832.39001 244.31346,835.04172 237.71226,833.50901 L 237.46606,833.4425 z M 225.51344,826.16698 C 224.45691,822.14193 226.63208,825.85559 225.69462,826.53866 L 225.55177,826.2456 225.51344,826.16698 z M 170.56217,848.54408 C 177.89361,847.73622 177.49905,839.14452 169.84773,842.93136 168.00673,844.29033 167.25974,848.35906 170.56217,848.54408 z M 225.60042,847.54937 C 224.15474,847.80715 225.14064,849.43745 225.60042,847.54937 z M 210.23746,844.74791 C 212.50452,842.97846 215.02704,833.166 210.64961,839.32123 208.62745,843.6585 201.51271,842.72421 203.36995,839.39453 197.54148,843.73235 205.2882,849.85361 209.74938,845.44284 L 210.23746,844.74791 z M 229.03947,843.17016 C 225.57234,839.61617 229.42567,850.93233 229.03947,843.17016 z M 206.68042,841.83729 C 212.32738,839.51233 209.53558,835.63101 205.16649,838.77513 203.95541,839.81055 204.17475,843.9344 206.68042,841.83729 z M 202.39454,839.58755 C 200.57599,835.31553 198.55442,842.86843 202.00369,840.63168 L 202.21642,839.9327 202.39454,839.58755 z M 207.57085,837.15 C 210.51043,836.40096 217.95763,836.32633 212.10403,833.00493 208.71633,827.11351 214.16955,821.24931 218.32357,816.96192 220.38755,814.54711 223.86369,810.83954 219.05248,814.60106 214.212,817.25824 206.63951,813.15255 206.01028,819.90885 204.4457,823.76664 196.07388,826.55608 194.21037,824.07452 197.90044,826.80606 208.33753,820.51132 203.49589,818.91115 205.76472,812.1967 195.10501,815.58921 190.58434,814.11556 183.71297,812.44289 177.75916,815.4412 176.33708,821.97463 173.72435,825.64594 175.53202,834.67691 181.71463,832.26481 189.09118,832.81209 197.71171,836.7234 204.1292,831.53614 205.34215,828.07024 211.18101,830.57279 206.09012,832.025 202.90848,833.86049 196.73075,834.0207 194.92474,835.92004 198.53529,838.60882 203.33874,837.59535 207.57085,837.15 z M 183.25878,830.70046 C 174.13514,830.59808 178.49114,818.5412 186.18309,822.52947 188.66045,822.95396 193.65263,827.01065 188.4003,824.15751 184.4346,819.84077 175.0259,826.12148 182.14413,829.22253 184.77801,830.11143 194.15397,830.67205 186.80556,831.19715 185.60476,831.17352 184.41225,830.99132 183.25878,830.70046 z M 190.4635,828.51132 C 190.30635,825.74768 194.45075,830.39096 190.4635,828.51132 z M 190.12093,821.59303 C 188.07306,817.41875 198.02517,818.23523 192.68937,821.60377 192.12257,822.35594 190.61708,822.50762 190.12093,821.59303 z M 183.35255,821.07741 C 183.7432,819.24172 183.84365,822.47553 183.35255,821.07741 z M 179.31453,819.61582 C 181.96909,818.08166 186.00074,820.5043 181.07025,818.25288 178.39735,814.60391 187.8388,821.23671 182.8941,816.90211 182.05341,810.89519 184.55064,820.92048 187.72933,816.61849 188.93022,813.61883 195.85376,815.99648 193.47635,816.94762 187.03315,812.14844 185.539,823.01594 179.31453,819.61582 z M 174.14884,821.67453 C 178.08975,818.80659 178.03855,811.35698 173.0472,815.60906 175.70262,809.29588 186.65895,813.52833 192.7399,813.43077 201.56991,814.19282 211.18909,816.50677 219.54364,812.78267 222.76587,807.82794 211.77325,806.19851 207.82271,804.43994 203.24801,800.6564 195.88444,802.19506 190.0816,802.09777 181.84883,802.70362 172.40649,805.02402 168.08746,811.76446 167.51214,813.53785 168.03879,819.04329 166.51194,814.4041 167.92415,806.77909 177.55869,803.64124 185.08146,802.22067 190.92555,801.30707 196.88419,801.59183 202.78477,801.70149 190.25977,797.72616 175.39384,796.36691 163.37087,802.30433 160.11174,803.31345 157.16323,810.0198 158.54765,810.14116 159.83903,808.21068 163.5334,804.12733 160.45203,808.41632 157.67212,815.49344 165.77695,822.3909 173.13191,823.11415 L 173.52028,822.81632 174.14884,821.67453 z M 170.731,809.78813 C 181.09434,803.18075 194.46981,804.19166 206.59972,804.1466 194.42848,804.51096 181.30863,804.11926 170.61837,810.03888 L 170.731,809.78813 z M 240.49164,819.65687 C 244.70263,808.94133 238.2557,797.25315 228.52061,790.68255 218.48513,782.99573 204.56649,778.18239 191.30572,781.33774 185.34853,782.55654 179.61527,785.07342 175.39232,789.03836 173.51323,797.26592 186.16934,795.29522 191.84225,795.06727 195.04565,795.00757 202.266,793.61567 202.74496,795.18618 200.47198,795.64282 192.12754,795.9835 199.10998,796.23239 203.91619,796.34624 215.37333,796.99637 215.82079,797.88147 209.43202,797.68346 203.07027,796.56617 196.66411,797.05405 203.4421,799.57334 210.99696,799.48885 218.0047,801.35211 220.84169,801.04798 230.00562,805.3998 223.07514,803.36097 212.83014,800.48002 202.16885,798.7134 191.42295,798.28256 208.02978,801.93007 225.18947,808.04262 235.82682,820.46811 237.08026,823.90827 239.9563,822.49818 240.49164,819.65687 z M 218.89812,800.22071 C 215.63608,799.36597 207.06314,798.70241 207.03169,798.1444 212.21857,799.13297 218.32872,798.64538 222.90918,800.97614 221.5678,800.74267 220.23447,800.47523 218.89812,800.22071 z M 200.70607,797.6936 C 203.33421,797.37268 203.3004,798.16646 200.70607,797.6936 z M 178.7847,814.86138 C 176.43212,812.26693 178.89173,818.19472 178.7847,814.86138 z"
       id="path3005"
       inkscape:connector-curvature="0" />
  </g>
</svg>
