<?xml version="1.0" encoding="UTF-8" standalone="no"?>
<!-- Created with Inkscape (http://www.inkscape.org/) -->

<svg
   xmlns:dc="http://purl.org/dc/elements/1.1/"
   xmlns:cc="http://creativecommons.org/ns#"
   xmlns:rdf="http://www.w3.org/1999/02/22-rdf-syntax-ns#"
   xmlns:svg="http://www.w3.org/2000/svg"
   xmlns="http://www.w3.org/2000/svg"
   xmlns:sodipodi="http://sodipodi.sourceforge.net/DTD/sodipodi-0.dtd"
   xmlns:inkscape="http://www.inkscape.org/namespaces/inkscape"
   width="283.46457"
   height="283.46457"
   id="svg3015"
   version="1.1"
   inkscape:version="0.48.5 r10040"
   sodipodi:docname="squirtle.gcode">
  <defs
     id="defs3017" />
  <sodipodi:namedview
     id="base"
     pagecolor="#ffffff"
     bordercolor="#666666"
     borderopacity="1.0"
     inkscape:pageopacity="0.0"
     inkscape:pageshadow="2"
     inkscape:zoom="1.979899"
     inkscape:cx="302.92536"
     inkscape:cy="191.802"
     inkscape:document-units="px"
     inkscape:current-layer="layer1"
     showgrid="false"
     inkscape:window-width="1536"
     inkscape:window-height="801"
     inkscape:window-x="-8"
     inkscape:window-y="-8"
     inkscape:window-maximized="1"
     units="mm" />
  <metadata
     id="metadata3020">
    <rdf:RDF>
      <cc:Work
         rdf:about="">
        <dc:format>image/svg+xml</dc:format>
        <dc:type
           rdf:resource="http://purl.org/dc/dcmitype/StillImage" />
        <dc:title></dc:title>
      </cc:Work>
    </rdf:RDF>
  </metadata>
  <g
     inkscape:label="Layer 1"
     inkscape:groupmode="layer"
     id="layer1"
     transform="translate(0,-768.89763)">
    <path
       style="fill:#000000"
       d="M 190.65625,779.625 C 180.6738,778.67204 171.30745,784.65909 166.47553,793.16549 162.69975,798.23401 162.88566,804.96962 162.84375,811.03125 163.85012,815.72728 159.48047,821.16289 164.62902,824.54984 165.51364,825.86956 160.99035,824.99334 159.71875,825.4375 155.53849,824.80646 151.8964,826.35253 155.60948,830.71892 154.75561,834.01113 151.48526,837.75383 156.77948,839.51186 161.42457,845.00788 166.22056,851.6288 173.875,852.75 175.68446,860.59932 178.40787,868.29184 182.5625,875.21875 178.62263,879.54029 176.18551,885.48547 178.03897,891.32047 179.50226,895.32759 181.95626,898.17963 179.04542,902.10951 182.0647,908.8874 191.11381,905.46038 197.10035,904.25735 205.70415,904.10109 195.13006,890.9657 203.30415,891.37983 208.09413,892.28926 213.50003,892.02513 212.34375,898.65625 213.48738,902.87376 208.65871,909.97552 216.44257,908.65434 220.72064,913.6669 225.35461,906.6973 230.76987,908.67971 232.9705,904.13474 229.7131,895.84795 232.94946,892.77012 242.40096,894.11889 252.15287,893.95633 261.40627,891.56699 268.89283,887.95412 271.5056,878.34734 270.6875,870.625 269.32035,864.09741 265.85408,857.00346 259.46225,854.20816 250.88899,852.04555 244.05287,859.70152 240.84375,866.78125 239.75606,869.48651 237.92471,871.88254 239.03125,867.4375 239.99567,857.06677 239.51066,846.4211 237.13182,836.26621 234.16455,827.31742 229.3675,818.35881 221.45203,812.88752 217.50188,808.66854 215.56885,803.86991 214.56081,798.00384 212.19518,788.79128 204.10509,781.99728 194.90041,780.21526 193.50344,779.91111 192.08342,779.71159 190.65625,779.625 z M 190.4375,780.78125 C 200.42168,780.95935 210.42887,787.20458 213.25,797.09375 215.50467,804.54502 218.06241,813.14899 214.56207,820.6029 211.86827,822.34174 209.73375,823.71674 208.33013,820.02422 203.84299,812.95488 203.06902,824.85573 199.88687,827.13281 199.65274,831.08738 198.14039,833.35243 193.38393,833.44941 183.86779,834.89843 173.1341,832.47171 166.44644,825.22251 171.41184,826.6296 177.192,831.57019 183.1797,827.95146 188.03849,826.62063 196.32781,829.43942 198.78908,824.9671 192.08265,827.75791 184.27701,825.47867 177.51524,828.32125 172.55031,826.64362 165.06124,824.60702 162.63978,819.7414 162.13195,814.09605 171.06347,818.41309 169.38277,811.81719 169.509,807.07114 169.11322,798.63196 164.65711,797.75948 169.431,789.61312 176.38976,780.86406 186.74711,780.76864 187.97602,780.69728 189.20894,780.70868 190.4375,780.78125 z M 196.59375,797 C 191.4324,801.15038 190.71033,809.08112 192.37917,815.137 196.83481,820.70871 206.37148,816.85357 203.78194,809.31369 204.24219,804.00114 200.37116,799.60918 196.59375,797 z M 165.625,799.1875 C 168.96175,801.79975 162.51053,810.08767 164.27401,802.17175 164.60243,801.21579 164.60112,799.72559 165.625,799.1875 z M 195.375,799.71875 C 201.2236,801.9852 190.92541,812.13425 193.17464,803.91824 193.79349,802.51893 194.14091,800.72212 195.375,799.71875 z M 202.75,806 C 202.49003,809.32506 203.76095,813.38411 201.6875,816.09375 201.04139,813.71177 202.93724,809.35833 202.74567,806.04934 L 202.75,806 z M 217.84375,809.65625 C 223.50974,813.69215 218.2358,821.96927 221.84436,827.34658 224.95749,833.77169 230.04178,840.16409 228.20709,847.77291 227.79054,853.54424 225.30089,859.74437 228.90625,865 230.72001,870.38597 236.68707,876.78098 232.3629,882.29675 229.78873,879.12247 226.87032,871.83685 224.27644,867.06687 219.03177,858.01517 224.52118,847.70179 223.21282,838.11814 222.26512,831.63776 215.28745,827.3081 216.06927,820.60592 217.16551,816.9938 217.7654,813.3558 217.84375,809.65625 z M 222.0625,815 C 223.81649,816.39143 221.06511,816.48105 222.0625,815 z M 205.59375,818.28125 C 207.73946,820.93353 209.96423,825.36236 213.39472,822.54396 215.60182,828.63116 222.55112,832.84042 222.61621,840.22104 223.88997,846.21734 218.1479,852.89333 212.0114,849.68539 206.05617,846.90036 204.81138,839.69177 202.60334,834.15438 200.55887,830.57952 198.71634,827.66087 202.86901,824.52902 203.95322,822.52228 204.33738,820.20089 205.59375,818.28125 z M 225.8125,818.34375 C 228.64873,820.16438 226.23815,821.39329 225.8125,818.34375 z M 222.5625,818.96875 C 223.10838,820.66184 221.75588,820.59535 222.5625,818.96875 z M 228.46875,821.5625 C 230.41734,823.49573 231.53998,828.02914 229.06651,823.03231 227.66438,824.07211 228.44551,822.83806 228.46875,821.5625 z M 221.6875,821.96875 C 222.05649,825.19927 220.92674,822.28295 221.6875,821.96875 z M 171.40625,822.09375 C 170.1668,823.81761 174.31368,825.25193 171.81464,822.27843 L 171.40625,822.09375 z M 179.96875,822.6875 C 176.56836,825.30478 181.08825,825.90954 179.96875,822.6875 z M 221.9375,824.96875 C 224.90771,827.05974 223.56703,829.9085 221.9375,824.96875 z M 160.375,826.46875 C 162.78364,826.75411 165.69503,825.587 167.44444,827.77688 170.39645,831.72904 178.61983,831.11199 177.77085,837.21308 177.13464,841.81959 178.47884,851.70692 171.9065,851.27217 164.44759,848.92116 160.55829,841.61247 154.88188,836.89 153.17241,835.72915 156.36936,833.45929 156.75,831.8125 154.6715,827.49617 154.04188,825.80995 160.375,826.46875 z M 230.875,827.5625 C 235.05388,827.89783 233.70515,837.41302 233.1875,830.3125 233.5961,828.02148 226.87947,828.84279 230.875,827.5625 z M 225.34375,827.71875 C 229.96269,827.34178 226.0277,828.52952 225.34375,827.71875 z M 161.65625,829.375 C 156.02397,827.87501 159.77575,836.87209 160.57701,833.60564 156.57028,831.45856 161.90705,830.91585 161.65625,829.375 z M 228.625,829.84375 C 233.22969,830.46009 229.57104,831.541 228.625,829.84375 z M 226.125,831.78125 C 228.23944,834.4482 227.4502,836.40556 226.15625,832.4375 L 226.125,831.78125 z M 201.03125,832.03125 C 202.86276,838.37634 204.77269,845.42342 210.00774,849.78948 213.76741,850.56755 213.07193,852.59324 211.49827,855.24146 210.23982,858.55764 207.92036,861.94416 207.5908,865.26701 211.57589,861.0498 210.83501,851.60232 217.91496,851.27061 220.64445,850.70746 222.95595,846.69649 221.43344,851.58081 220.35229,857.74261 221.15724,863.94844 224.30527,869.40844 225.87592,872.5082 227.52275,874.19367 223.24321,872.46976 216.17908,872.06433 212.288,879.10352 211.37236,885.1907 205.77223,886.28583 199.26141,880.5626 197.40792,874.58615 195.92435,871.46336 192.67475,866.0676 198.79171,867.45581 201.72676,867.57914 205.00976,866.90458 207.7783,867.47042 210.17208,869.68398 212.56299,872.96041 215.16407,874.18865 212.86781,871.18535 210.09742,868.58325 207.53125,865.8125 203.0431,866.59853 198.45854,867.03218 193.9375,866.25 191.80184,859.78664 190.5319,853.05669 189.9375,846.28125 194.89722,845.77555 200.31836,846.64945 204.86078,844.46092 200.38096,844.23617 194.52289,845.71982 189.46757,844.6958 186.24009,843.74659 179.82008,844.57281 178.6875,841.28576 178.6875,838.77384 178.6875,836.26192 178.6875,833.75 185.96896,835.59721 194.3968,836.21122 201.03125,832.03125 z M 235.4375,835.84375 C 236.82847,836.91612 235.61007,840.28066 235.4375,835.84375 z M 228.875,838.21875 C 231.16001,839.33539 229.11572,841.90525 228.875,838.21875 z M 237.03125,841.375 C 237.49784,843.00661 236.24734,843.02009 237.03125,841.375 z M 179,843.78125 C 182.36232,844.51053 185.72551,845.23588 189.09375,845.9375 189.45968,852.82862 191.05018,859.73031 192.81931,866.23476 189.69116,865.61079 186.02354,865.37328 183.15973,864.2304 180.74362,859.83451 177.04444,855.65326 176.65625,850.5625 177.72966,848.47663 177.30634,845.41836 179,843.78125 z M 237.5,843.8125 C 237.86898,847.04305 236.73923,844.12664 237.5,843.8125 z M 229.8125,845.1875 C 230.31298,846.94442 228.93933,846.73923 229.8125,845.1875 z M 237.96875,847.625 C 238.33774,850.85553 237.20799,847.93918 237.96875,847.625 z M 229.34375,849 C 229.81291,850.69961 228.55655,850.62453 229.34375,849 z M 228.90625,851.75 C 229.40193,853.44421 228.0373,853.31914 228.90625,851.75 z M 175.0625,852.28125 C 177.38197,856.49199 182.01611,861.77177 182.12372,867.05046 181.16273,875.2858 178.22202,863.65714 177.03182,861.01741 176.13023,858.19099 174.88767,855.30648 175.0625,852.28125 z M 238.40625,852.71875 C 238.8167,856.27488 237.76406,859.5239 238.15625,853.78125 L 238.40625,852.71875 z M 228.4375,853.9375 C 228.97943,855.56645 227.63472,855.58183 228.4375,853.9375 z M 256.15625,854.875 C 264.2354,855.12024 268.29005,863.8918 269.83669,870.73205 270.65899,877.82507 268.36014,886.20351 262.00674,890.11934 257.28065,892.91821 250.8641,889.51829 251.15824,883.84146 248.89574,877.88781 255.32811,867.4935 260.86743,874.91643 261.79292,877.52166 260.99637,884.07714 262.61832,877.83104 263.23886,872.81603 255.98394,868.69266 252.5869,873.09291 248.8025,878.61269 248.99795,887.34831 254.3125,891.875 247.46209,893.20754 240.3241,892.37441 233.4305,891.69756 229.24599,886.74508 234.64065,880.99957 236.86681,875.97446 241.44387,868.62686 244.11362,858.57757 253.05529,855.32007 254.05989,855.0212 255.10849,854.87399 256.15625,854.875 z M 238.03125,858.40625 C 238.0167,860.10205 236.30607,860.09101 238.03125,858.40625 z M 228.6875,862.03125 C 230.69822,863.92464 232.73381,870.41251 229.75712,864.51823 229.35027,863.71258 228.94339,862.90114 228.6875,862.03125 z M 238.5,862.78125 C 238.29877,865.85476 237.26876,869.15764 236.78125,870.15625 235.10851,870.51726 238.56472,864.58997 238.5,862.78125 z M 183.6875,866 C 190.40249,865.42227 195.51422,868.74737 196.8872,875.45271 198.03563,878.45792 200.44363,881.19763 201.37414,884.15224 200.86538,887.74624 199.43054,890.16915 196.39113,886.09702 191.40708,882.09749 187.11817,877.33037 182.47128,872.96333 181.88245,870.74792 182.66523,868.01073 183.6875,866 z M 232.875,867.96875 C 236.36788,868.91342 234.70842,872.15485 232.875,867.96875 z M 222.21875,873.65625 C 229.51901,874.369 231.14188,882.92716 230.90299,888.93126 230.92062,895.12385 230.61178,901.31119 230.4375,907.5 226.24185,906.50657 222.80698,909.08582 219.19825,909.62727 217.30638,905.88749 209.77831,909.01765 213.25077,902.92488 213.31779,894.47547 210.22411,884.81646 215.45487,877.2582 217.02497,875.14509 219.50724,873.5424 222.21875,873.65625 z M 183.96875,875.625 C 189.32932,880.32643 193.55682,886.45813 199.86953,890.0103 197.51935,895.46791 203.07723,904.67798 193.60001,904.15457 190.60422,904.33964 178.52946,907.74525 183.80937,902.37079 176.89145,903.69246 182.70389,899.35267 181.87545,896.98977 176.34587,890.78134 177.36945,880.65997 183.96875,875.625 z M 202.625,884.53125 C 205.36361,885.6305 209.03156,886.18748 211.24622,887.78909 211.99194,890.63601 211.33982,892.35164 208.11789,891.37002 203.47366,890.78669 199.25623,890.01424 202.625,884.53125 z"
       id="path3036"
       inkscape:connector-curvature="0" />
  </g>
</svg>
